M48
; DRILL file {KiCad (5.1.12)-1} date 11/30/21 12:40:13
; FORMAT={-:-/ absolute / metric / decimal}
; #@! TF.CreationDate,2021-11-30T12:40:13+01:00
; #@! TF.GenerationSoftware,Kicad,Pcbnew,(5.1.12)-1
; #@! TF.FileFunction,Plated,1,2,PTH
FMAT,2
METRIC
T1C0.400
T2C0.600
T3C0.800
T4C1.000
T5C1.200
T6C1.300
T7C3.200
%
G90
G05
T1
X85.725Y-119.38
X114.3Y-115.57
X116.205Y-119.38
X126.365Y-75.565
X126.365Y-92.71
X129.54Y-115.57
X151.13Y-107.95
X151.13Y-128.27
X154.94Y-121.92
X154.94Y-127.0
T2
X160.02Y-101.6
X162.02Y-101.6
X170.18Y-109.76
X170.18Y-111.76
T3
X67.31Y-73.66
X67.31Y-83.82
X75.565Y-73.66
X75.565Y-83.82
X78.74Y-104.14
X80.01Y-83.82
X80.01Y-93.98
X85.09Y-87.63
X85.09Y-93.98
X85.09Y-98.425
X87.63Y-78.74
X87.63Y-83.185
X88.9Y-104.14
X92.075Y-73.66
X92.075Y-104.14
X95.25Y-87.63
X95.25Y-93.98
X95.25Y-98.425
X97.79Y-78.74
X97.79Y-83.185
X102.235Y-73.66
X102.235Y-80.01
X102.235Y-82.55
X102.235Y-85.09
X102.235Y-87.63
X102.235Y-90.17
X102.235Y-92.71
X102.235Y-95.25
X102.235Y-104.14
X106.045Y-104.14
X109.855Y-80.01
X109.855Y-82.55
X109.855Y-85.09
X109.855Y-87.63
X109.855Y-90.17
X109.855Y-92.71
X109.855Y-95.25
X113.665Y-78.74
X113.665Y-82.55
X113.665Y-86.36
X113.665Y-92.71
X113.665Y-96.52
X116.205Y-104.14
X121.325Y-104.14
X123.825Y-78.74
X123.825Y-82.55
X123.825Y-86.36
X123.825Y-92.71
X123.825Y-96.52
X123.825Y-104.14
X132.715Y-113.07
X132.715Y-115.57
X135.295Y-77.47
X137.795Y-77.47
X137.795Y-93.98
X137.795Y-104.14
X139.065Y-107.95
X139.065Y-115.57
X141.605Y-93.98
X141.605Y-104.14
X141.605Y-107.95
X141.605Y-115.57
X144.145Y-107.95
X144.145Y-115.57
X146.685Y-107.95
X146.685Y-115.57
X154.94Y-107.95
X154.94Y-115.57
X157.48Y-107.95
X157.48Y-115.57
X160.02Y-107.95
X160.02Y-115.57
X162.56Y-107.95
X162.56Y-115.57
T4
X91.44Y-125.73
X93.98Y-125.73
X96.52Y-125.73
X99.06Y-125.73
X101.6Y-125.73
X104.14Y-125.73
X106.68Y-125.73
X109.22Y-125.73
X111.76Y-125.73
X114.3Y-125.73
X116.84Y-125.73
X119.38Y-125.73
T5
X132.715Y-88.9
X145.415Y-88.9
T6
X145.415Y-77.55
X145.415Y-82.55
T7
X62.23Y-68.58
X62.23Y-146.05
X177.8Y-69.85
X177.8Y-146.05
T0
M30
