%TF.GenerationSoftware,KiCad,Pcbnew,(5.1.12)-1*%
%TF.CreationDate,2021-11-30T12:40:22+01:00*%
%TF.ProjectId,cwater,63776174-6572-42e6-9b69-6361645f7063,rev?*%
%TF.SameCoordinates,Original*%
%TF.FileFunction,Copper,L2,Bot*%
%TF.FilePolarity,Positive*%
%FSLAX46Y46*%
G04 Gerber Fmt 4.6, Leading zero omitted, Abs format (unit mm)*
G04 Created by KiCad (PCBNEW (5.1.12)-1) date 2021-11-30 12:40:22*
%MOMM*%
%LPD*%
G01*
G04 APERTURE LIST*
%TA.AperFunction,ComponentPad*%
%ADD10O,1.600000X1.600000*%
%TD*%
%TA.AperFunction,ComponentPad*%
%ADD11C,1.600000*%
%TD*%
%TA.AperFunction,ComponentPad*%
%ADD12C,2.600000*%
%TD*%
%TA.AperFunction,ComponentPad*%
%ADD13R,1.600000X1.600000*%
%TD*%
%TA.AperFunction,ComponentPad*%
%ADD14O,2.400000X2.400000*%
%TD*%
%TA.AperFunction,ComponentPad*%
%ADD15R,2.400000X2.400000*%
%TD*%
%TA.AperFunction,ComponentPad*%
%ADD16C,1.200000*%
%TD*%
%TA.AperFunction,ComponentPad*%
%ADD17R,1.200000X1.200000*%
%TD*%
%TA.AperFunction,ComponentPad*%
%ADD18C,3.200000*%
%TD*%
%TA.AperFunction,ComponentPad*%
%ADD19R,1.700000X1.700000*%
%TD*%
%TA.AperFunction,ComponentPad*%
%ADD20O,1.700000X1.700000*%
%TD*%
%TA.AperFunction,ViaPad*%
%ADD21C,0.800000*%
%TD*%
%TA.AperFunction,Conductor*%
%ADD22C,2.000000*%
%TD*%
%TA.AperFunction,Conductor*%
%ADD23C,1.000000*%
%TD*%
%TA.AperFunction,Conductor*%
%ADD24C,0.254000*%
%TD*%
%TA.AperFunction,Conductor*%
%ADD25C,0.100000*%
%TD*%
G04 APERTURE END LIST*
D10*
%TO.P,R52,2*%
%TO.N,/-7.2V*%
X137795000Y-93980000D03*
D11*
%TO.P,R52,1*%
%TO.N,Net-(IC10-Pad8)*%
X137795000Y-104140000D03*
%TD*%
D10*
%TO.P,R51,2*%
%TO.N,Net-(IC10-Pad8)*%
X141605000Y-93980000D03*
D11*
%TO.P,R51,1*%
%TO.N,Net-(C20-Pad1)*%
X141605000Y-104140000D03*
%TD*%
D10*
%TO.P,R17,2*%
%TO.N,GND*%
X85090000Y-93980000D03*
D11*
%TO.P,R17,1*%
%TO.N,Net-(IC11-Pad5)*%
X95250000Y-93980000D03*
%TD*%
D10*
%TO.P,R16,2*%
%TO.N,Net-(J1-Pad2)*%
X85090000Y-98425000D03*
D11*
%TO.P,R16,1*%
%TO.N,Net-(IC11-Pad5)*%
X95250000Y-98425000D03*
%TD*%
D10*
%TO.P,R15,2*%
%TO.N,GND*%
X85090000Y-87630000D03*
D11*
%TO.P,R15,1*%
%TO.N,Net-(IC11-Pad3)*%
X95250000Y-87630000D03*
%TD*%
D10*
%TO.P,R14,2*%
%TO.N,Net-(J1-Pad3)*%
X87630000Y-83185000D03*
D11*
%TO.P,R14,1*%
%TO.N,Net-(IC11-Pad3)*%
X97790000Y-83185000D03*
%TD*%
D10*
%TO.P,R13,2*%
%TO.N,Net-(J1-Pad4)*%
X67310000Y-83820000D03*
D11*
%TO.P,R13,1*%
%TO.N,Net-(R12-Pad2)*%
X67310000Y-73660000D03*
%TD*%
D10*
%TO.P,R12,2*%
%TO.N,Net-(R12-Pad2)*%
X75565000Y-73660000D03*
D11*
%TO.P,R12,1*%
%TO.N,Net-(R1-Pad2)*%
X75565000Y-83820000D03*
%TD*%
D10*
%TO.P,R11,2*%
%TO.N,Net-(R1-Pad2)*%
X80010000Y-83820000D03*
D11*
%TO.P,R11,1*%
%TO.N,GND*%
X80010000Y-93980000D03*
%TD*%
D10*
%TO.P,R10,2*%
%TO.N,Net-(IC11-Pad14)*%
X113665000Y-78740000D03*
D11*
%TO.P,R10,1*%
%TO.N,Net-(IC11-Pad13)*%
X123825000Y-78740000D03*
%TD*%
D10*
%TO.P,R9,2*%
%TO.N,Net-(IC11-Pad13)*%
X113665000Y-82550000D03*
D11*
%TO.P,R9,1*%
%TO.N,Net-(R12-Pad2)*%
X123825000Y-82550000D03*
%TD*%
D10*
%TO.P,R8,2*%
%TO.N,Net-(IC11-Pad6)*%
X92075000Y-104140000D03*
D11*
%TO.P,R8,1*%
%TO.N,Net-(IC11-Pad7)*%
X102235000Y-104140000D03*
%TD*%
D10*
%TO.P,R7,2*%
%TO.N,Net-(R1-Pad2)*%
X78740000Y-104140000D03*
D11*
%TO.P,R7,1*%
%TO.N,Net-(IC11-Pad6)*%
X88900000Y-104140000D03*
%TD*%
D10*
%TO.P,R6,2*%
%TO.N,Net-(H2O1-Pad1)*%
X123825000Y-86360000D03*
D11*
%TO.P,R6,1*%
%TO.N,Net-(IC11-Pad1)*%
X113665000Y-86360000D03*
%TD*%
D10*
%TO.P,R5,2*%
%TO.N,Net-(IC11-Pad7)*%
X106045000Y-104140000D03*
D11*
%TO.P,R5,1*%
%TO.N,Net-(H2O1-Pad2)*%
X116205000Y-104140000D03*
%TD*%
D10*
%TO.P,R4,2*%
%TO.N,Net-(IC11-Pad8)*%
X113665000Y-96520000D03*
D11*
%TO.P,R4,1*%
%TO.N,Net-(IC11-Pad9)*%
X123825000Y-96520000D03*
%TD*%
D10*
%TO.P,R3,2*%
%TO.N,Net-(IC11-Pad9)*%
X113665000Y-92710000D03*
D11*
%TO.P,R3,1*%
%TO.N,Net-(IC11-Pad14)*%
X123825000Y-92710000D03*
%TD*%
D10*
%TO.P,R2,2*%
%TO.N,Net-(IC11-Pad2)*%
X92075000Y-73660000D03*
D11*
%TO.P,R2,1*%
%TO.N,Net-(IC11-Pad1)*%
X102235000Y-73660000D03*
%TD*%
D10*
%TO.P,R1,2*%
%TO.N,Net-(R1-Pad2)*%
X87630000Y-78740000D03*
D11*
%TO.P,R1,1*%
%TO.N,Net-(IC11-Pad2)*%
X97790000Y-78740000D03*
%TD*%
D12*
%TO.P,L2,2*%
%TO.N,GND*%
X145415000Y-77550000D03*
%TO.P,L2,1*%
%TO.N,Net-(D6-Pad2)*%
X145415000Y-82550000D03*
%TD*%
D10*
%TO.P,IC11,14*%
%TO.N,Net-(IC11-Pad14)*%
X109855000Y-80010000D03*
%TO.P,IC11,7*%
%TO.N,Net-(IC11-Pad7)*%
X102235000Y-95250000D03*
%TO.P,IC11,13*%
%TO.N,Net-(IC11-Pad13)*%
X109855000Y-82550000D03*
%TO.P,IC11,6*%
%TO.N,Net-(IC11-Pad6)*%
X102235000Y-92710000D03*
%TO.P,IC11,12*%
%TO.N,Net-(IC11-Pad1)*%
X109855000Y-85090000D03*
%TO.P,IC11,5*%
%TO.N,Net-(IC11-Pad5)*%
X102235000Y-90170000D03*
%TO.P,IC11,11*%
%TO.N,/-7.2V*%
X109855000Y-87630000D03*
%TO.P,IC11,4*%
%TO.N,+5VA*%
X102235000Y-87630000D03*
%TO.P,IC11,10*%
%TO.N,Net-(H2O1-Pad1)*%
X109855000Y-90170000D03*
%TO.P,IC11,3*%
%TO.N,Net-(IC11-Pad3)*%
X102235000Y-85090000D03*
%TO.P,IC11,9*%
%TO.N,Net-(IC11-Pad9)*%
X109855000Y-92710000D03*
%TO.P,IC11,2*%
%TO.N,Net-(IC11-Pad2)*%
X102235000Y-82550000D03*
%TO.P,IC11,8*%
%TO.N,Net-(IC11-Pad8)*%
X109855000Y-95250000D03*
D13*
%TO.P,IC11,1*%
%TO.N,Net-(IC11-Pad1)*%
X102235000Y-80010000D03*
%TD*%
D10*
%TO.P,IC10,8*%
%TO.N,Net-(IC10-Pad8)*%
X139065000Y-107950000D03*
%TO.P,IC10,4*%
%TO.N,GND*%
X146685000Y-115570000D03*
%TO.P,IC10,7*%
%TO.N,Net-(C20-Pad1)*%
X141605000Y-107950000D03*
%TO.P,IC10,3*%
%TO.N,GND*%
X144145000Y-115570000D03*
%TO.P,IC10,6*%
%TO.N,Net-(C17-Pad1)*%
X144145000Y-107950000D03*
%TO.P,IC10,2*%
%TO.N,Net-(IC10-Pad2)*%
X141605000Y-115570000D03*
%TO.P,IC10,5*%
%TO.N,Net-(D6-Pad2)*%
X146685000Y-107950000D03*
D13*
%TO.P,IC10,1*%
%TO.N,GND*%
X139065000Y-115570000D03*
%TD*%
D10*
%TO.P,IC7,8*%
%TO.N,+5VA*%
X154940000Y-107950000D03*
%TO.P,IC7,4*%
%TO.N,Net-(C17-Pad1)*%
X162560000Y-115570000D03*
%TO.P,IC7,7*%
%TO.N,Net-(IC7-Pad7)*%
X157480000Y-107950000D03*
%TO.P,IC7,3*%
%TO.N,Net-(IC7-Pad3)*%
X160020000Y-115570000D03*
%TO.P,IC7,6*%
%TO.N,GND*%
X160020000Y-107950000D03*
%TO.P,IC7,2*%
%TO.N,Net-(IC7-Pad2)*%
X157480000Y-115570000D03*
%TO.P,IC7,5*%
%TO.N,GND*%
X162560000Y-107950000D03*
D13*
%TO.P,IC7,1*%
%TO.N,Net-(C17-Pad1)*%
X154940000Y-115570000D03*
%TD*%
D11*
%TO.P,H2O1,2*%
%TO.N,Net-(H2O1-Pad2)*%
X121325000Y-104140000D03*
%TO.P,H2O1,1*%
%TO.N,Net-(H2O1-Pad1)*%
X123825000Y-104140000D03*
%TD*%
D14*
%TO.P,D6,2*%
%TO.N,Net-(D6-Pad2)*%
X145415000Y-88900000D03*
D15*
%TO.P,D6,1*%
%TO.N,/-7.2V*%
X132715000Y-88900000D03*
%TD*%
D11*
%TO.P,C21,2*%
%TO.N,/-7.2V*%
X135295000Y-77470000D03*
D13*
%TO.P,C21,1*%
%TO.N,GND*%
X137795000Y-77470000D03*
%TD*%
D11*
%TO.P,C20,2*%
%TO.N,GND*%
X132715000Y-115570000D03*
%TO.P,C20,1*%
%TO.N,Net-(C20-Pad1)*%
X132715000Y-113070000D03*
%TD*%
D16*
%TO.P,C17,2*%
%TO.N,GND*%
X170180000Y-109760000D03*
D17*
%TO.P,C17,1*%
%TO.N,Net-(C17-Pad1)*%
X170180000Y-111760000D03*
%TD*%
D16*
%TO.P,C16,2*%
%TO.N,GND*%
X162020000Y-101600000D03*
D17*
%TO.P,C16,1*%
%TO.N,+5VA*%
X160020000Y-101600000D03*
%TD*%
D18*
%TO.P,H1,1*%
%TO.N,GND*%
X177800000Y-146050000D03*
%TD*%
%TO.P,H2,1*%
%TO.N,GND*%
X62230000Y-146050000D03*
%TD*%
%TO.P,H3,1*%
%TO.N,GND*%
X177800000Y-69850000D03*
%TD*%
%TO.P,H4,1*%
%TO.N,GND*%
X62230000Y-68580000D03*
%TD*%
D19*
%TO.P,J1,1*%
%TO.N,Net-(IC11-Pad8)*%
X91440000Y-125730000D03*
D20*
%TO.P,J1,2*%
%TO.N,Net-(J1-Pad2)*%
X93980000Y-125730000D03*
%TO.P,J1,3*%
%TO.N,Net-(J1-Pad3)*%
X96520000Y-125730000D03*
%TO.P,J1,4*%
%TO.N,Net-(J1-Pad4)*%
X99060000Y-125730000D03*
%TO.P,J1,5*%
%TO.N,Net-(H2O1-Pad1)*%
X101600000Y-125730000D03*
%TO.P,J1,6*%
%TO.N,Net-(H2O1-Pad2)*%
X104140000Y-125730000D03*
%TO.P,J1,7*%
%TO.N,GND*%
X106680000Y-125730000D03*
%TO.P,J1,8*%
X109220000Y-125730000D03*
%TO.P,J1,9*%
X111760000Y-125730000D03*
%TO.P,J1,10*%
%TO.N,Net-(C17-Pad1)*%
X114300000Y-125730000D03*
%TO.P,J1,11*%
%TO.N,+5VA*%
X116840000Y-125730000D03*
%TO.P,J1,12*%
%TO.N,/-7.2V*%
X119380000Y-125730000D03*
%TD*%
D21*
%TO.N,Net-(C17-Pad1)*%
X154940000Y-121920000D03*
X154940000Y-127000000D03*
%TO.N,Net-(IC11-Pad14)*%
X126365000Y-92710000D03*
X126365000Y-75565000D03*
%TO.N,GND*%
X129540000Y-115570000D03*
X114300000Y-115570000D03*
%TO.N,+5VA*%
X151130000Y-107950000D03*
X151130000Y-128270000D03*
X85725000Y-119380000D03*
X116205000Y-119380000D03*
%TD*%
D22*
%TO.N,Net-(C17-Pad1)*%
X144145000Y-110490000D02*
X144145000Y-107950000D01*
X145415000Y-111760000D02*
X144145000Y-110490000D01*
X154940000Y-115570000D02*
X154940000Y-114300000D01*
X154940000Y-116840000D02*
X154940000Y-115570000D01*
D23*
X170180000Y-111760000D02*
X170180000Y-113030000D01*
D22*
X167640000Y-115570000D02*
X162560000Y-115570000D01*
X170180000Y-113030000D02*
X167640000Y-115570000D01*
X152400000Y-111760000D02*
X154940000Y-114300000D01*
X145415000Y-111760000D02*
X150495000Y-111760000D01*
X150495000Y-111760000D02*
X152400000Y-111760000D01*
X161290000Y-119380000D02*
X155575000Y-119380000D01*
X162560000Y-118110000D02*
X161290000Y-119380000D01*
X155575000Y-119380000D02*
X154940000Y-120015000D01*
X162560000Y-115570000D02*
X162560000Y-118110000D01*
X154940000Y-120015000D02*
X154940000Y-115570000D01*
X154940000Y-121920000D02*
X154940000Y-120015000D01*
X114300000Y-133858000D02*
X114300000Y-125730000D01*
X154940000Y-133985000D02*
X114300000Y-133858000D01*
X154940000Y-127000000D02*
X154940000Y-133985000D01*
%TO.N,Net-(C20-Pad1)*%
X141605000Y-107950000D02*
X141605000Y-104140000D01*
X134025000Y-111760000D02*
X132715000Y-113070000D01*
X140335000Y-111760000D02*
X134025000Y-111760000D01*
X141605000Y-110490000D02*
X140335000Y-111760000D01*
X141605000Y-107950000D02*
X141605000Y-110490000D01*
%TO.N,/-7.2V*%
X132715000Y-88900000D02*
X135255000Y-88900000D01*
X135255000Y-88900000D02*
X137795000Y-91440000D01*
X137795000Y-91440000D02*
X137795000Y-93980000D01*
D23*
X112395000Y-88265000D02*
X111125000Y-87630000D01*
X111125000Y-87630000D02*
X109855000Y-87630000D01*
X116840000Y-88265000D02*
X112395000Y-88265000D01*
X121285000Y-84455000D02*
X116840000Y-88265000D01*
X126365000Y-84455000D02*
X121285000Y-84455000D01*
X132715000Y-88900000D02*
X126365000Y-84455000D01*
D22*
X132715000Y-85598000D02*
X132715000Y-88900000D01*
X135295000Y-81240000D02*
X132715000Y-85598000D01*
X135295000Y-77470000D02*
X135295000Y-81240000D01*
X134366000Y-105410000D02*
X127762000Y-111506000D01*
X134620000Y-105410000D02*
X134366000Y-105410000D01*
X134620000Y-99060000D02*
X134620000Y-105410000D01*
X137795000Y-95885000D02*
X134620000Y-99060000D01*
X127762000Y-111506000D02*
X119380000Y-125730000D01*
X137795000Y-93980000D02*
X137795000Y-95885000D01*
%TO.N,Net-(D6-Pad2)*%
X145415000Y-88900000D02*
X145415000Y-82550000D01*
X146685000Y-90170000D02*
X145415000Y-88900000D01*
X146685000Y-107950000D02*
X146685000Y-90170000D01*
%TO.N,Net-(IC10-Pad8)*%
X137795000Y-106680000D02*
X139065000Y-107950000D01*
X137795000Y-104140000D02*
X137795000Y-106680000D01*
X141605000Y-93980000D02*
X141605000Y-97790000D01*
X141605000Y-97790000D02*
X137795000Y-101600000D01*
X137795000Y-101600000D02*
X137795000Y-104140000D01*
%TO.N,Net-(H2O1-Pad2)*%
X116205000Y-104140000D02*
X121325000Y-104140000D01*
X104140000Y-121920000D02*
X104140000Y-125730000D01*
X116205000Y-109855000D02*
X104140000Y-121920000D01*
X116205000Y-104140000D02*
X116205000Y-109855000D01*
D23*
%TO.N,Net-(H2O1-Pad1)*%
X120015000Y-90170000D02*
X123825000Y-86360000D01*
X109855000Y-90170000D02*
X120015000Y-90170000D01*
X102870000Y-117475000D02*
X101600000Y-118745000D01*
X113030000Y-107950000D02*
X103505000Y-117475000D01*
X103505000Y-117475000D02*
X102870000Y-117475000D01*
X113030000Y-102235000D02*
X113030000Y-107950000D01*
X101600000Y-118745000D02*
X101600000Y-125730000D01*
X114935000Y-100330000D02*
X113030000Y-102235000D01*
X121920000Y-100330000D02*
X114935000Y-100330000D01*
X123825000Y-102235000D02*
X121920000Y-100330000D01*
X123825000Y-104140000D02*
X123825000Y-102235000D01*
X129540000Y-90170000D02*
X129540000Y-104140000D01*
X120015000Y-90170000D02*
X129540000Y-90170000D01*
X129540000Y-104140000D02*
X123825000Y-104140000D01*
D22*
%TO.N,Net-(IC11-Pad14)*%
X111125000Y-78740000D02*
X109855000Y-80010000D01*
X113665000Y-78740000D02*
X111125000Y-78740000D01*
X123825000Y-92710000D02*
X126365000Y-92710000D01*
X113665000Y-78740000D02*
X113665000Y-77470000D01*
X113665000Y-77470000D02*
X115570000Y-75565000D01*
X126103476Y-75565000D02*
X126257818Y-75693619D01*
X115570000Y-75565000D02*
X126103476Y-75565000D01*
%TO.N,Net-(IC11-Pad7)*%
X102235000Y-95250000D02*
X102235000Y-104140000D01*
X106045000Y-104140000D02*
X102235000Y-104140000D01*
%TO.N,Net-(IC11-Pad13)*%
X109855000Y-82550000D02*
X113665000Y-82550000D01*
X113665000Y-82550000D02*
X116840000Y-82550000D01*
X116840000Y-82550000D02*
X120650000Y-78740000D01*
X120650000Y-78740000D02*
X123825000Y-78740000D01*
D23*
%TO.N,Net-(IC11-Pad6)*%
X98425000Y-104140000D02*
X92075000Y-104140000D01*
X99695000Y-94615000D02*
X99695000Y-102870000D01*
X101600000Y-92710000D02*
X99695000Y-94615000D01*
X99695000Y-102870000D02*
X98425000Y-104140000D01*
X102235000Y-92710000D02*
X101600000Y-92710000D01*
D22*
X88900000Y-104140000D02*
X92075000Y-104140000D01*
%TO.N,Net-(IC11-Pad1)*%
X102235000Y-73660000D02*
X102235000Y-80010000D01*
X113665000Y-86360000D02*
X112395000Y-85090000D01*
X112395000Y-85090000D02*
X109855000Y-85090000D01*
X106045000Y-81280000D02*
X104775000Y-80010000D01*
X104775000Y-80010000D02*
X102235000Y-80010000D01*
X109855000Y-85090000D02*
X107315000Y-85090000D01*
X106045000Y-83820000D02*
X106045000Y-81280000D01*
X107315000Y-85090000D02*
X106045000Y-83820000D01*
D23*
%TO.N,Net-(IC11-Pad5)*%
X95250000Y-93980000D02*
X96520000Y-92710000D01*
X96520000Y-92710000D02*
X98425000Y-92710000D01*
X100965000Y-90170000D02*
X102235000Y-90170000D01*
X98425000Y-92710000D02*
X100965000Y-90170000D01*
D22*
X95250000Y-93980000D02*
X95250000Y-98425000D01*
D23*
%TO.N,Net-(IC11-Pad3)*%
X99695000Y-85090000D02*
X97790000Y-83185000D01*
X102235000Y-85090000D02*
X99695000Y-85090000D01*
X99060000Y-85090000D02*
X99695000Y-85090000D01*
X96520000Y-87630000D02*
X99060000Y-85090000D01*
X95250000Y-87630000D02*
X96520000Y-87630000D01*
D22*
%TO.N,Net-(IC11-Pad9)*%
X109855000Y-92710000D02*
X113665000Y-92710000D01*
X123825000Y-96520000D02*
X120015000Y-96520000D01*
X120015000Y-96520000D02*
X116205000Y-92710000D01*
X116205000Y-92710000D02*
X113665000Y-92710000D01*
D23*
%TO.N,Net-(IC11-Pad2)*%
X97790000Y-79375000D02*
X97790000Y-78740000D01*
X100965000Y-82550000D02*
X97790000Y-79375000D01*
X102235000Y-82550000D02*
X100965000Y-82550000D01*
D22*
X97790000Y-78740000D02*
X97790000Y-76835000D01*
X94615000Y-73660000D02*
X92075000Y-73660000D01*
X97790000Y-76835000D02*
X94615000Y-73660000D01*
%TO.N,Net-(IC11-Pad8)*%
X109855000Y-95250000D02*
X111125000Y-96520000D01*
X111125000Y-96520000D02*
X113665000Y-96520000D01*
X109855000Y-95250000D02*
X109855000Y-106680000D01*
X91440000Y-125730000D02*
X91440000Y-114935000D01*
X91440000Y-114935000D02*
X96520000Y-109855000D01*
X106680000Y-109855000D02*
X109855000Y-106680000D01*
X96520000Y-109855000D02*
X106680000Y-109855000D01*
%TO.N,Net-(R1-Pad2)*%
X80010000Y-83820000D02*
X75565000Y-83820000D01*
X75565000Y-100965000D02*
X78740000Y-104140000D01*
X75565000Y-83820000D02*
X75565000Y-100965000D01*
X80010000Y-82550000D02*
X80010000Y-83820000D01*
X82550000Y-78740000D02*
X80010000Y-81280000D01*
X80010000Y-81280000D02*
X80010000Y-82550000D01*
X87630000Y-78740000D02*
X82550000Y-78740000D01*
%TO.N,Net-(R12-Pad2)*%
X75565000Y-73660000D02*
X70485000Y-73660000D01*
X67310000Y-73660000D02*
X70485000Y-73660000D01*
X125095000Y-82550000D02*
X123825000Y-82550000D01*
X129540000Y-82550000D02*
X125095000Y-82550000D01*
X129540000Y-72390000D02*
X129540000Y-82550000D01*
X109220000Y-72390000D02*
X129540000Y-72390000D01*
X105410000Y-68580000D02*
X109220000Y-72390000D01*
X77470000Y-68580000D02*
X105410000Y-68580000D01*
X75565000Y-70485000D02*
X77470000Y-68580000D01*
X75565000Y-73660000D02*
X75565000Y-70485000D01*
%TO.N,Net-(J1-Pad4)*%
X67310000Y-105410000D02*
X67310000Y-107950000D01*
X67310000Y-83820000D02*
X67310000Y-105410000D01*
X67310000Y-135890000D02*
X67310000Y-105410000D01*
X68580000Y-137160000D02*
X67310000Y-135890000D01*
X99060000Y-135890000D02*
X97790000Y-137160000D01*
X97790000Y-137160000D02*
X68580000Y-137160000D01*
X99060000Y-125730000D02*
X99060000Y-135890000D01*
D23*
%TO.N,Net-(J1-Pad3)*%
X81280000Y-75565000D02*
X71755000Y-83185000D01*
X87630000Y-75565000D02*
X81280000Y-75565000D01*
X90170000Y-77470000D02*
X87630000Y-75565000D01*
X90170000Y-80645000D02*
X90170000Y-77470000D01*
X87630000Y-83185000D02*
X90170000Y-80645000D01*
D22*
X71755000Y-107315000D02*
X71755000Y-83185000D01*
X71755000Y-132715000D02*
X71755000Y-107315000D01*
X96520000Y-132715000D02*
X71755000Y-132715000D01*
X96520000Y-125730000D02*
X96520000Y-132715000D01*
%TO.N,Net-(J1-Pad2)*%
X93980000Y-127050002D02*
X93980000Y-125730000D01*
X93980000Y-129540000D02*
X93980000Y-127050002D01*
X83058000Y-129540000D02*
X93980000Y-129540000D01*
X83058000Y-100584000D02*
X83058000Y-129540000D01*
X83185000Y-98425000D02*
X83058000Y-100584000D01*
X85090000Y-98425000D02*
X83185000Y-98425000D01*
%TO.N,GND*%
X145335000Y-77470000D02*
X145415000Y-77550000D01*
X137795000Y-77470000D02*
X145335000Y-77470000D01*
X139065000Y-115570000D02*
X132715000Y-115570000D01*
X146685000Y-115570000D02*
X146685000Y-118110000D01*
X146685000Y-118110000D02*
X144145000Y-120650000D01*
X144145000Y-120650000D02*
X140335000Y-120650000D01*
X140335000Y-120650000D02*
X139065000Y-119380000D01*
X139065000Y-119380000D02*
X139065000Y-115570000D01*
X144145000Y-115570000D02*
X146685000Y-115570000D01*
X146685000Y-115570000D02*
X147955000Y-115570000D01*
X150495000Y-80010000D02*
X147955000Y-77470000D01*
X147875000Y-77550000D02*
X145415000Y-77550000D01*
X147955000Y-77470000D02*
X147875000Y-77550000D01*
X162560000Y-102140000D02*
X162020000Y-101600000D01*
X160020000Y-107950000D02*
X162560000Y-107950000D01*
D23*
X170180000Y-109760000D02*
X169005000Y-108585000D01*
D22*
X168275000Y-107950000D02*
X162560000Y-107950000D01*
D23*
X168910000Y-108585000D02*
X168275000Y-107950000D01*
D22*
X81915000Y-93980000D02*
X85090000Y-93980000D01*
X85090000Y-87630000D02*
X85090000Y-93980000D01*
X80010000Y-93980000D02*
X81915000Y-93980000D01*
D23*
X92075000Y-76835000D02*
X88265000Y-73660000D01*
X87630000Y-87630000D02*
X92075000Y-83185000D01*
X92075000Y-83185000D02*
X92075000Y-76835000D01*
X85090000Y-87630000D02*
X87630000Y-87630000D01*
X88265000Y-73660000D02*
X79375000Y-73660000D01*
X79375000Y-73660000D02*
X75565000Y-77470000D01*
X162020000Y-91535000D02*
X150495000Y-80010000D01*
X162020000Y-101600000D02*
X162020000Y-91535000D01*
X162560000Y-104775000D02*
X177165000Y-104775000D01*
D22*
X162560000Y-107950000D02*
X162560000Y-104775000D01*
X162560000Y-104775000D02*
X162560000Y-102140000D01*
D23*
X177165000Y-104775000D02*
X177165000Y-124460000D01*
X147955000Y-124460000D02*
X144145000Y-120650000D01*
X177165000Y-124460000D02*
X147955000Y-124460000D01*
D22*
X132715000Y-115570000D02*
X129540000Y-115570000D01*
X102870000Y-140970000D02*
X106680000Y-134620000D01*
X66040000Y-140970000D02*
X102870000Y-140970000D01*
X62865000Y-81280000D02*
X62865000Y-138430000D01*
X66675000Y-77470000D02*
X62865000Y-81280000D01*
X62865000Y-138430000D02*
X66040000Y-140970000D01*
X75565000Y-77470000D02*
X66675000Y-77470000D01*
X62230000Y-80645000D02*
X62865000Y-81280000D01*
X62230000Y-68580000D02*
X62230000Y-80645000D01*
X62230000Y-139065000D02*
X62865000Y-138430000D01*
X62230000Y-146050000D02*
X62230000Y-139065000D01*
X177800000Y-125095000D02*
X177165000Y-124460000D01*
X177800000Y-146050000D02*
X177800000Y-125095000D01*
X177800000Y-104140000D02*
X177165000Y-104775000D01*
X177800000Y-69850000D02*
X177800000Y-104140000D01*
X106680000Y-125730000D02*
X106680000Y-134620000D01*
X109220000Y-121920000D02*
X109220000Y-125730000D01*
X114300000Y-116840000D02*
X109220000Y-121920000D01*
X114300000Y-115570000D02*
X114300000Y-116840000D01*
X111760000Y-125730000D02*
X106680000Y-125730000D01*
%TO.N,+5VA*%
X154940000Y-107950000D02*
X154940000Y-102870000D01*
X154940000Y-102870000D02*
X156210000Y-101600000D01*
X156210000Y-101600000D02*
X159819992Y-101600000D01*
X154940000Y-107950000D02*
X151130000Y-107950000D01*
X102235000Y-87630000D02*
X99695000Y-87630000D01*
X99695000Y-87630000D02*
X100330000Y-87630000D01*
X99695000Y-87630000D02*
X97155000Y-90170000D01*
X97155000Y-90170000D02*
X90170000Y-90170000D01*
X90170000Y-90170000D02*
X90170000Y-97790000D01*
X90170000Y-97790000D02*
X85725000Y-102235000D01*
X85725000Y-102235000D02*
X85725000Y-110490000D01*
X85725000Y-110490000D02*
X85725000Y-119380000D01*
X149860000Y-129540000D02*
X151130000Y-128270000D01*
X116840000Y-129540000D02*
X149860000Y-129540000D01*
X116840000Y-125730000D02*
X116840000Y-129540000D01*
X116840000Y-125730000D02*
X116205000Y-119380000D01*
%TD*%
D24*
%TO.N,GND*%
X189840000Y-151740000D02*
X56540000Y-151740000D01*
X56540000Y-145829872D01*
X59995000Y-145829872D01*
X59995000Y-146270128D01*
X60080890Y-146701925D01*
X60249369Y-147108669D01*
X60493962Y-147474729D01*
X60805271Y-147786038D01*
X61171331Y-148030631D01*
X61578075Y-148199110D01*
X62009872Y-148285000D01*
X62450128Y-148285000D01*
X62881925Y-148199110D01*
X63288669Y-148030631D01*
X63654729Y-147786038D01*
X63966038Y-147474729D01*
X64210631Y-147108669D01*
X64379110Y-146701925D01*
X64465000Y-146270128D01*
X64465000Y-145829872D01*
X175565000Y-145829872D01*
X175565000Y-146270128D01*
X175650890Y-146701925D01*
X175819369Y-147108669D01*
X176063962Y-147474729D01*
X176375271Y-147786038D01*
X176741331Y-148030631D01*
X177148075Y-148199110D01*
X177579872Y-148285000D01*
X178020128Y-148285000D01*
X178451925Y-148199110D01*
X178858669Y-148030631D01*
X179224729Y-147786038D01*
X179536038Y-147474729D01*
X179780631Y-147108669D01*
X179949110Y-146701925D01*
X180035000Y-146270128D01*
X180035000Y-145829872D01*
X179949110Y-145398075D01*
X179780631Y-144991331D01*
X179536038Y-144625271D01*
X179224729Y-144313962D01*
X178858669Y-144069369D01*
X178451925Y-143900890D01*
X178020128Y-143815000D01*
X177579872Y-143815000D01*
X177148075Y-143900890D01*
X176741331Y-144069369D01*
X176375271Y-144313962D01*
X176063962Y-144625271D01*
X175819369Y-144991331D01*
X175650890Y-145398075D01*
X175565000Y-145829872D01*
X64465000Y-145829872D01*
X64379110Y-145398075D01*
X64210631Y-144991331D01*
X63966038Y-144625271D01*
X63654729Y-144313962D01*
X63288669Y-144069369D01*
X62881925Y-143900890D01*
X62450128Y-143815000D01*
X62009872Y-143815000D01*
X61578075Y-143900890D01*
X61171331Y-144069369D01*
X60805271Y-144313962D01*
X60493962Y-144625271D01*
X60249369Y-144991331D01*
X60080890Y-145398075D01*
X59995000Y-145829872D01*
X56540000Y-145829872D01*
X56540000Y-73660000D01*
X65667089Y-73660000D01*
X65698657Y-73980516D01*
X65792148Y-74288715D01*
X65943969Y-74572752D01*
X66148286Y-74821714D01*
X66397248Y-75026031D01*
X66681285Y-75177852D01*
X66989484Y-75271343D01*
X67229678Y-75295000D01*
X75484678Y-75295000D01*
X75565000Y-75302911D01*
X75645322Y-75295000D01*
X75885516Y-75271343D01*
X76193715Y-75177852D01*
X76477752Y-75026031D01*
X76726714Y-74821714D01*
X76931031Y-74572752D01*
X77082852Y-74288715D01*
X77176343Y-73980516D01*
X77207911Y-73660000D01*
X77200000Y-73579678D01*
X77200000Y-71162238D01*
X78147239Y-70215000D01*
X104732762Y-70215000D01*
X108007084Y-73489324D01*
X108058286Y-73551714D01*
X108307248Y-73756031D01*
X108392006Y-73801335D01*
X108591285Y-73907852D01*
X108899483Y-74001343D01*
X109220000Y-74032911D01*
X109300322Y-74025000D01*
X115014297Y-74025000D01*
X114941285Y-74047148D01*
X114657248Y-74198969D01*
X114408286Y-74403286D01*
X114357079Y-74465682D01*
X112565682Y-76257080D01*
X112503287Y-76308286D01*
X112298970Y-76557248D01*
X112147148Y-76841285D01*
X112067151Y-77105000D01*
X111205319Y-77105000D01*
X111124999Y-77097089D01*
X111044680Y-77105000D01*
X111044678Y-77105000D01*
X110804484Y-77128657D01*
X110496285Y-77222148D01*
X110212248Y-77373969D01*
X109963286Y-77578286D01*
X109912079Y-77640682D01*
X108642085Y-78910677D01*
X108488970Y-79097248D01*
X108337148Y-79381286D01*
X108243658Y-79689484D01*
X108212089Y-80010000D01*
X108243658Y-80330516D01*
X108337148Y-80638714D01*
X108488970Y-80922752D01*
X108693287Y-81171713D01*
X108825234Y-81279999D01*
X108693286Y-81388286D01*
X108488969Y-81637248D01*
X108337148Y-81921285D01*
X108243657Y-82229484D01*
X108212089Y-82550000D01*
X108243657Y-82870516D01*
X108337148Y-83178715D01*
X108484825Y-83455000D01*
X107992239Y-83455000D01*
X107680000Y-83142762D01*
X107680000Y-81360319D01*
X107687911Y-81279999D01*
X107677246Y-81171714D01*
X107656343Y-80959484D01*
X107562852Y-80651285D01*
X107411031Y-80367248D01*
X107206714Y-80118286D01*
X107144318Y-80067079D01*
X105987924Y-78910686D01*
X105936714Y-78848286D01*
X105687752Y-78643969D01*
X105403715Y-78492148D01*
X105095516Y-78398657D01*
X104855322Y-78375000D01*
X104855319Y-78375000D01*
X104775000Y-78367089D01*
X104694681Y-78375000D01*
X103870000Y-78375000D01*
X103870000Y-73579678D01*
X103846343Y-73339484D01*
X103752852Y-73031285D01*
X103601031Y-72747248D01*
X103396714Y-72498286D01*
X103147751Y-72293969D01*
X102863714Y-72142148D01*
X102555515Y-72048657D01*
X102235000Y-72017089D01*
X101914484Y-72048657D01*
X101606285Y-72142148D01*
X101322248Y-72293969D01*
X101073286Y-72498286D01*
X100868969Y-72747249D01*
X100717148Y-73031286D01*
X100623657Y-73339485D01*
X100600000Y-73579679D01*
X100600001Y-79929668D01*
X100592089Y-80010000D01*
X100623657Y-80330516D01*
X100717148Y-80638715D01*
X100784094Y-80763963D01*
X99326703Y-79306572D01*
X99401343Y-79060516D01*
X99425000Y-78820322D01*
X99425000Y-76915319D01*
X99432911Y-76834999D01*
X99420465Y-76708637D01*
X99401343Y-76514484D01*
X99307852Y-76206285D01*
X99156031Y-75922248D01*
X98951714Y-75673286D01*
X98889319Y-75622080D01*
X95827925Y-72560687D01*
X95776714Y-72498286D01*
X95527752Y-72293969D01*
X95243715Y-72142148D01*
X94935516Y-72048657D01*
X94695322Y-72025000D01*
X94695319Y-72025000D01*
X94615000Y-72017089D01*
X94534681Y-72025000D01*
X91994678Y-72025000D01*
X91754484Y-72048657D01*
X91446285Y-72142148D01*
X91162248Y-72293969D01*
X90913286Y-72498286D01*
X90708969Y-72747248D01*
X90557148Y-73031285D01*
X90463657Y-73339484D01*
X90432089Y-73660000D01*
X90463657Y-73980516D01*
X90557148Y-74288715D01*
X90708969Y-74572752D01*
X90913286Y-74821714D01*
X91162248Y-75026031D01*
X91446285Y-75177852D01*
X91754484Y-75271343D01*
X91994678Y-75295000D01*
X93937762Y-75295000D01*
X96155001Y-77512239D01*
X96155000Y-78820321D01*
X96178657Y-79060515D01*
X96272148Y-79368714D01*
X96423969Y-79652751D01*
X96628286Y-79901714D01*
X96877248Y-80106031D01*
X96956361Y-80148318D01*
X96983551Y-80181449D01*
X97026865Y-80216996D01*
X100123009Y-83313141D01*
X100158551Y-83356449D01*
X100331377Y-83498284D01*
X100469568Y-83572148D01*
X100528553Y-83603676D01*
X100742501Y-83668577D01*
X100964999Y-83690491D01*
X101020751Y-83685000D01*
X101350716Y-83685000D01*
X101552759Y-83820000D01*
X101350716Y-83955000D01*
X100165132Y-83955000D01*
X99217850Y-83007718D01*
X99169853Y-82766426D01*
X99061680Y-82505273D01*
X98904637Y-82270241D01*
X98704759Y-82070363D01*
X98469727Y-81913320D01*
X98208574Y-81805147D01*
X97931335Y-81750000D01*
X97648665Y-81750000D01*
X97371426Y-81805147D01*
X97110273Y-81913320D01*
X96875241Y-82070363D01*
X96675363Y-82270241D01*
X96518320Y-82505273D01*
X96410147Y-82766426D01*
X96355000Y-83043665D01*
X96355000Y-83326335D01*
X96410147Y-83603574D01*
X96518320Y-83864727D01*
X96675363Y-84099759D01*
X96875241Y-84299637D01*
X97110273Y-84456680D01*
X97371426Y-84564853D01*
X97612718Y-84612850D01*
X97772368Y-84772500D01*
X96083681Y-86461188D01*
X95929727Y-86358320D01*
X95668574Y-86250147D01*
X95391335Y-86195000D01*
X95108665Y-86195000D01*
X94831426Y-86250147D01*
X94570273Y-86358320D01*
X94335241Y-86515363D01*
X94135363Y-86715241D01*
X93978320Y-86950273D01*
X93870147Y-87211426D01*
X93815000Y-87488665D01*
X93815000Y-87771335D01*
X93870147Y-88048574D01*
X93978320Y-88309727D01*
X94128842Y-88535000D01*
X90250322Y-88535000D01*
X90170000Y-88527089D01*
X90089678Y-88535000D01*
X89849484Y-88558657D01*
X89541285Y-88652148D01*
X89257248Y-88803969D01*
X89008286Y-89008286D01*
X88803969Y-89257248D01*
X88652148Y-89541285D01*
X88558657Y-89849484D01*
X88527089Y-90170000D01*
X88535000Y-90250322D01*
X88535001Y-97112760D01*
X86613863Y-99033898D01*
X86701343Y-98745516D01*
X86732911Y-98425000D01*
X86701343Y-98104484D01*
X86607852Y-97796285D01*
X86456031Y-97512248D01*
X86251714Y-97263286D01*
X86002752Y-97058969D01*
X85718715Y-96907148D01*
X85410516Y-96813657D01*
X85170322Y-96790000D01*
X83313549Y-96790000D01*
X83281475Y-96784925D01*
X83152794Y-96790000D01*
X83104678Y-96790000D01*
X83072543Y-96793165D01*
X82959659Y-96797617D01*
X82912630Y-96808915D01*
X82864484Y-96813657D01*
X82756354Y-96846458D01*
X82646502Y-96872848D01*
X82602578Y-96893105D01*
X82556285Y-96907148D01*
X82456630Y-96960415D01*
X82354040Y-97007728D01*
X82314913Y-97036164D01*
X82272248Y-97058969D01*
X82184902Y-97130652D01*
X82093509Y-97197073D01*
X82060681Y-97232596D01*
X82023286Y-97263286D01*
X81951599Y-97350637D01*
X81874925Y-97433608D01*
X81849659Y-97474852D01*
X81818969Y-97512248D01*
X81765703Y-97611901D01*
X81706687Y-97708239D01*
X81689952Y-97753621D01*
X81667148Y-97796285D01*
X81634348Y-97904412D01*
X81595259Y-98010416D01*
X81587700Y-98058192D01*
X81573657Y-98104484D01*
X81562581Y-98216943D01*
X81557539Y-98248807D01*
X81554716Y-98296792D01*
X81542089Y-98425000D01*
X81545273Y-98457328D01*
X81427715Y-100455811D01*
X81423000Y-100503679D01*
X81423000Y-100535958D01*
X81421105Y-100568173D01*
X81423000Y-100616219D01*
X81423001Y-129459668D01*
X81415089Y-129540000D01*
X81446657Y-129860516D01*
X81540148Y-130168715D01*
X81691969Y-130452752D01*
X81896286Y-130701714D01*
X82145248Y-130906031D01*
X82429285Y-131057852D01*
X82502297Y-131080000D01*
X73390000Y-131080000D01*
X73390000Y-83330508D01*
X81678136Y-76700000D01*
X87251668Y-76700000D01*
X87803965Y-77114223D01*
X87710322Y-77105000D01*
X82630319Y-77105000D01*
X82549999Y-77097089D01*
X82469680Y-77105000D01*
X82469678Y-77105000D01*
X82229484Y-77128657D01*
X81921285Y-77222148D01*
X81637248Y-77373969D01*
X81388286Y-77578286D01*
X81337080Y-77640681D01*
X78910687Y-80067075D01*
X78848286Y-80118286D01*
X78643969Y-80367249D01*
X78492148Y-80651286D01*
X78398657Y-80959485D01*
X78375000Y-81199678D01*
X78367089Y-81280000D01*
X78375000Y-81360319D01*
X78375000Y-82185000D01*
X75645322Y-82185000D01*
X75565000Y-82177089D01*
X75484678Y-82185000D01*
X75244484Y-82208657D01*
X74936285Y-82302148D01*
X74652248Y-82453969D01*
X74403286Y-82658286D01*
X74198969Y-82907248D01*
X74047148Y-83191285D01*
X73953657Y-83499484D01*
X73922089Y-83820000D01*
X73930000Y-83900321D01*
X73930001Y-100884671D01*
X73922089Y-100965000D01*
X73953658Y-101285516D01*
X74047148Y-101593714D01*
X74198970Y-101877752D01*
X74403287Y-102126714D01*
X74465682Y-102177920D01*
X77640676Y-105352915D01*
X77827247Y-105506030D01*
X78111285Y-105657852D01*
X78419483Y-105751342D01*
X78739999Y-105782911D01*
X79060516Y-105751342D01*
X79368714Y-105657852D01*
X79652752Y-105506030D01*
X79901713Y-105301713D01*
X80106030Y-105052752D01*
X80257852Y-104768714D01*
X80351342Y-104460516D01*
X80382911Y-104139999D01*
X80351342Y-103819483D01*
X80257852Y-103511285D01*
X80106030Y-103227247D01*
X79952915Y-103040676D01*
X77200000Y-100287762D01*
X77200000Y-93838665D01*
X78575000Y-93838665D01*
X78575000Y-94121335D01*
X78630147Y-94398574D01*
X78738320Y-94659727D01*
X78895363Y-94894759D01*
X79095241Y-95094637D01*
X79330273Y-95251680D01*
X79591426Y-95359853D01*
X79868665Y-95415000D01*
X80151335Y-95415000D01*
X80428574Y-95359853D01*
X80689727Y-95251680D01*
X80924759Y-95094637D01*
X81124637Y-94894759D01*
X81281680Y-94659727D01*
X81389853Y-94398574D01*
X81445000Y-94121335D01*
X81445000Y-93838665D01*
X83655000Y-93838665D01*
X83655000Y-94121335D01*
X83710147Y-94398574D01*
X83818320Y-94659727D01*
X83975363Y-94894759D01*
X84175241Y-95094637D01*
X84410273Y-95251680D01*
X84671426Y-95359853D01*
X84948665Y-95415000D01*
X85231335Y-95415000D01*
X85508574Y-95359853D01*
X85769727Y-95251680D01*
X86004759Y-95094637D01*
X86204637Y-94894759D01*
X86361680Y-94659727D01*
X86469853Y-94398574D01*
X86525000Y-94121335D01*
X86525000Y-93838665D01*
X86469853Y-93561426D01*
X86361680Y-93300273D01*
X86204637Y-93065241D01*
X86004759Y-92865363D01*
X85769727Y-92708320D01*
X85508574Y-92600147D01*
X85231335Y-92545000D01*
X84948665Y-92545000D01*
X84671426Y-92600147D01*
X84410273Y-92708320D01*
X84175241Y-92865363D01*
X83975363Y-93065241D01*
X83818320Y-93300273D01*
X83710147Y-93561426D01*
X83655000Y-93838665D01*
X81445000Y-93838665D01*
X81389853Y-93561426D01*
X81281680Y-93300273D01*
X81124637Y-93065241D01*
X80924759Y-92865363D01*
X80689727Y-92708320D01*
X80428574Y-92600147D01*
X80151335Y-92545000D01*
X79868665Y-92545000D01*
X79591426Y-92600147D01*
X79330273Y-92708320D01*
X79095241Y-92865363D01*
X78895363Y-93065241D01*
X78738320Y-93300273D01*
X78630147Y-93561426D01*
X78575000Y-93838665D01*
X77200000Y-93838665D01*
X77200000Y-87488665D01*
X83655000Y-87488665D01*
X83655000Y-87771335D01*
X83710147Y-88048574D01*
X83818320Y-88309727D01*
X83975363Y-88544759D01*
X84175241Y-88744637D01*
X84410273Y-88901680D01*
X84671426Y-89009853D01*
X84948665Y-89065000D01*
X85231335Y-89065000D01*
X85508574Y-89009853D01*
X85769727Y-88901680D01*
X86004759Y-88744637D01*
X86204637Y-88544759D01*
X86361680Y-88309727D01*
X86469853Y-88048574D01*
X86525000Y-87771335D01*
X86525000Y-87488665D01*
X86469853Y-87211426D01*
X86361680Y-86950273D01*
X86204637Y-86715241D01*
X86004759Y-86515363D01*
X85769727Y-86358320D01*
X85508574Y-86250147D01*
X85231335Y-86195000D01*
X84948665Y-86195000D01*
X84671426Y-86250147D01*
X84410273Y-86358320D01*
X84175241Y-86515363D01*
X83975363Y-86715241D01*
X83818320Y-86950273D01*
X83710147Y-87211426D01*
X83655000Y-87488665D01*
X77200000Y-87488665D01*
X77200000Y-85455000D01*
X79929678Y-85455000D01*
X80010000Y-85462911D01*
X80330516Y-85431343D01*
X80638715Y-85337852D01*
X80922752Y-85186031D01*
X81171714Y-84981714D01*
X81376031Y-84732752D01*
X81527852Y-84448715D01*
X81621343Y-84140516D01*
X81645000Y-83900322D01*
X81645000Y-83900321D01*
X81652911Y-83820000D01*
X81645000Y-83739678D01*
X81645000Y-81957238D01*
X83227239Y-80375000D01*
X87710322Y-80375000D01*
X87950516Y-80351343D01*
X88258715Y-80257852D01*
X88542752Y-80106031D01*
X88791714Y-79901714D01*
X88996031Y-79652752D01*
X89035000Y-79579846D01*
X89035000Y-80174868D01*
X87452718Y-81757150D01*
X87211426Y-81805147D01*
X86950273Y-81913320D01*
X86715241Y-82070363D01*
X86515363Y-82270241D01*
X86358320Y-82505273D01*
X86250147Y-82766426D01*
X86195000Y-83043665D01*
X86195000Y-83326335D01*
X86250147Y-83603574D01*
X86358320Y-83864727D01*
X86515363Y-84099759D01*
X86715241Y-84299637D01*
X86950273Y-84456680D01*
X87211426Y-84564853D01*
X87488665Y-84620000D01*
X87771335Y-84620000D01*
X88048574Y-84564853D01*
X88309727Y-84456680D01*
X88544759Y-84299637D01*
X88744637Y-84099759D01*
X88901680Y-83864727D01*
X89009853Y-83603574D01*
X89057850Y-83362282D01*
X90933141Y-81486991D01*
X90976449Y-81451449D01*
X91118284Y-81278623D01*
X91223676Y-81081447D01*
X91288577Y-80867499D01*
X91305000Y-80700752D01*
X91305000Y-80700743D01*
X91310490Y-80645001D01*
X91305000Y-80589259D01*
X91305000Y-77556782D01*
X91308801Y-77532072D01*
X91305000Y-77445200D01*
X91305000Y-77414248D01*
X91302563Y-77389506D01*
X91299028Y-77308710D01*
X91291628Y-77278481D01*
X91288577Y-77247501D01*
X91265097Y-77170099D01*
X91245868Y-77091546D01*
X91232711Y-77063338D01*
X91223676Y-77033553D01*
X91185549Y-76962222D01*
X91151363Y-76888927D01*
X91132958Y-76863830D01*
X91118284Y-76836377D01*
X91066974Y-76773856D01*
X91019145Y-76708637D01*
X90996194Y-76687610D01*
X90976449Y-76663551D01*
X90913925Y-76612239D01*
X90895601Y-76595451D01*
X90870848Y-76576886D01*
X90803623Y-76521716D01*
X90781573Y-76509930D01*
X88330851Y-74671889D01*
X88263623Y-74616716D01*
X88192287Y-74578587D01*
X88123146Y-74536639D01*
X88093897Y-74525996D01*
X88066447Y-74511324D01*
X87989045Y-74487844D01*
X87913047Y-74460191D01*
X87882288Y-74455459D01*
X87852499Y-74446423D01*
X87772009Y-74438495D01*
X87692072Y-74426199D01*
X87605201Y-74430000D01*
X81286998Y-74430000D01*
X81182388Y-74428694D01*
X81120328Y-74440235D01*
X81057501Y-74446423D01*
X81010680Y-74460626D01*
X80962581Y-74469571D01*
X80903960Y-74493000D01*
X80843553Y-74511324D01*
X80800408Y-74534386D01*
X80754973Y-74552544D01*
X80702051Y-74586958D01*
X80646377Y-74616716D01*
X80565471Y-74683114D01*
X71965801Y-81562851D01*
X71755000Y-81542089D01*
X71434485Y-81573657D01*
X71126286Y-81667148D01*
X70842249Y-81818969D01*
X70593287Y-82023286D01*
X70388970Y-82272248D01*
X70237149Y-82556285D01*
X70143658Y-82864484D01*
X70120001Y-83104678D01*
X70120000Y-107395321D01*
X70120001Y-107395331D01*
X70120000Y-132634678D01*
X70112089Y-132715000D01*
X70143657Y-133035516D01*
X70237148Y-133343715D01*
X70388969Y-133627752D01*
X70423248Y-133669521D01*
X70593286Y-133876714D01*
X70842248Y-134081031D01*
X71126285Y-134232852D01*
X71434484Y-134326343D01*
X71755000Y-134357911D01*
X71835322Y-134350000D01*
X96439678Y-134350000D01*
X96520000Y-134357911D01*
X96840516Y-134326343D01*
X97148715Y-134232852D01*
X97425001Y-134085174D01*
X97425001Y-135212760D01*
X97112762Y-135525000D01*
X69257239Y-135525000D01*
X68945000Y-135212762D01*
X68945000Y-83739678D01*
X68921343Y-83499484D01*
X68827852Y-83191285D01*
X68676031Y-82907248D01*
X68471714Y-82658286D01*
X68222751Y-82453969D01*
X67938714Y-82302148D01*
X67630515Y-82208657D01*
X67310000Y-82177089D01*
X66989484Y-82208657D01*
X66681285Y-82302148D01*
X66397248Y-82453969D01*
X66148286Y-82658286D01*
X65943969Y-82907249D01*
X65792148Y-83191286D01*
X65698657Y-83499485D01*
X65675000Y-83739679D01*
X65675001Y-105329669D01*
X65675000Y-105329679D01*
X65675001Y-106680001D01*
X65675000Y-135809681D01*
X65667089Y-135890000D01*
X65675000Y-135970319D01*
X65675000Y-135970321D01*
X65698657Y-136210515D01*
X65792148Y-136518714D01*
X65943969Y-136802751D01*
X66148286Y-137051714D01*
X66210686Y-137102924D01*
X67367079Y-138259318D01*
X67418286Y-138321714D01*
X67667248Y-138526031D01*
X67951285Y-138677852D01*
X68259484Y-138771343D01*
X68499678Y-138795000D01*
X68499680Y-138795000D01*
X68579999Y-138802911D01*
X68660319Y-138795000D01*
X97709681Y-138795000D01*
X97790000Y-138802911D01*
X97870319Y-138795000D01*
X97870322Y-138795000D01*
X98110516Y-138771343D01*
X98418715Y-138677852D01*
X98702752Y-138526031D01*
X98951714Y-138321714D01*
X99002924Y-138259314D01*
X100159318Y-137102921D01*
X100221714Y-137051714D01*
X100426031Y-136802752D01*
X100577852Y-136518715D01*
X100671343Y-136210516D01*
X100695000Y-135970322D01*
X100695000Y-135970320D01*
X100702911Y-135890001D01*
X100695000Y-135809681D01*
X100695000Y-126911293D01*
X100896589Y-127045990D01*
X101166842Y-127157932D01*
X101453740Y-127215000D01*
X101746260Y-127215000D01*
X102033158Y-127157932D01*
X102303411Y-127045990D01*
X102546632Y-126883475D01*
X102753475Y-126676632D01*
X102775151Y-126644191D01*
X102978287Y-126891714D01*
X103227249Y-127096031D01*
X103511286Y-127247852D01*
X103819485Y-127341343D01*
X104140000Y-127372911D01*
X104460516Y-127341343D01*
X104768715Y-127247852D01*
X105052752Y-127096031D01*
X105301714Y-126891714D01*
X105504849Y-126644192D01*
X105526525Y-126676632D01*
X105733368Y-126883475D01*
X105976589Y-127045990D01*
X106246842Y-127157932D01*
X106533740Y-127215000D01*
X106826260Y-127215000D01*
X107113158Y-127157932D01*
X107383411Y-127045990D01*
X107626632Y-126883475D01*
X107833475Y-126676632D01*
X107950000Y-126502240D01*
X108066525Y-126676632D01*
X108273368Y-126883475D01*
X108516589Y-127045990D01*
X108786842Y-127157932D01*
X109073740Y-127215000D01*
X109366260Y-127215000D01*
X109653158Y-127157932D01*
X109923411Y-127045990D01*
X110166632Y-126883475D01*
X110373475Y-126676632D01*
X110490000Y-126502240D01*
X110606525Y-126676632D01*
X110813368Y-126883475D01*
X111056589Y-127045990D01*
X111326842Y-127157932D01*
X111613740Y-127215000D01*
X111906260Y-127215000D01*
X112193158Y-127157932D01*
X112463411Y-127045990D01*
X112665001Y-126911292D01*
X112665000Y-133775126D01*
X112657098Y-133852866D01*
X112665000Y-133935752D01*
X112665000Y-133938321D01*
X112672646Y-134015957D01*
X112687664Y-134173479D01*
X112688404Y-134175946D01*
X112688657Y-134178515D01*
X112734690Y-134330265D01*
X112780191Y-134481968D01*
X112781399Y-134484245D01*
X112782148Y-134486714D01*
X112856898Y-134626562D01*
X112931124Y-134766478D01*
X112932752Y-134768475D01*
X112933969Y-134770751D01*
X113034654Y-134893438D01*
X113134662Y-135016077D01*
X113136646Y-135017716D01*
X113138286Y-135019714D01*
X113261065Y-135120476D01*
X113382984Y-135221171D01*
X113385250Y-135222391D01*
X113387248Y-135224031D01*
X113527281Y-135298880D01*
X113666545Y-135373879D01*
X113669006Y-135374634D01*
X113671285Y-135375852D01*
X113823191Y-135421932D01*
X113974451Y-135468333D01*
X113977013Y-135468593D01*
X113979484Y-135469343D01*
X114137284Y-135484885D01*
X114214570Y-135492741D01*
X114217130Y-135492749D01*
X114300000Y-135500911D01*
X114377773Y-135493251D01*
X154857130Y-135619749D01*
X154940000Y-135627911D01*
X155097834Y-135612366D01*
X155255478Y-135597336D01*
X155257944Y-135596596D01*
X155260516Y-135596343D01*
X155412397Y-135550270D01*
X155563968Y-135504809D01*
X155566244Y-135503602D01*
X155568715Y-135502852D01*
X155708695Y-135428031D01*
X155848478Y-135353876D01*
X155850473Y-135352249D01*
X155852752Y-135351031D01*
X155975517Y-135250281D01*
X156098077Y-135150338D01*
X156099716Y-135148354D01*
X156101714Y-135146714D01*
X156202476Y-135023935D01*
X156303171Y-134902016D01*
X156304391Y-134899750D01*
X156306031Y-134897752D01*
X156380880Y-134757719D01*
X156455879Y-134618455D01*
X156456634Y-134615994D01*
X156457852Y-134613715D01*
X156503932Y-134461809D01*
X156550333Y-134310549D01*
X156550593Y-134307987D01*
X156551343Y-134305516D01*
X156566902Y-134147544D01*
X156582902Y-133990134D01*
X156575000Y-133907248D01*
X156575000Y-126919678D01*
X156551343Y-126679484D01*
X156457852Y-126371285D01*
X156306031Y-126087248D01*
X156101714Y-125838286D01*
X155852751Y-125633969D01*
X155568714Y-125482148D01*
X155260515Y-125388657D01*
X154940000Y-125357089D01*
X154619484Y-125388657D01*
X154311285Y-125482148D01*
X154027248Y-125633969D01*
X153778286Y-125838286D01*
X153573969Y-126087249D01*
X153422148Y-126371286D01*
X153328657Y-126679485D01*
X153305000Y-126919679D01*
X153305001Y-132344883D01*
X115935000Y-132228101D01*
X115935000Y-130910175D01*
X116211285Y-131057852D01*
X116519484Y-131151343D01*
X116759678Y-131175000D01*
X116840000Y-131182911D01*
X116920322Y-131175000D01*
X149779681Y-131175000D01*
X149860000Y-131182911D01*
X149940319Y-131175000D01*
X149940322Y-131175000D01*
X150180516Y-131151343D01*
X150488715Y-131057852D01*
X150772752Y-130906031D01*
X151021714Y-130701714D01*
X151072924Y-130639314D01*
X152342915Y-129369324D01*
X152496030Y-129182753D01*
X152647851Y-128898715D01*
X152741342Y-128590517D01*
X152772911Y-128270001D01*
X152741342Y-127949484D01*
X152647851Y-127641286D01*
X152496030Y-127357248D01*
X152291713Y-127108287D01*
X152042752Y-126903970D01*
X151758714Y-126752149D01*
X151450516Y-126658658D01*
X151129999Y-126627089D01*
X150809483Y-126658658D01*
X150501285Y-126752149D01*
X150217247Y-126903970D01*
X150030676Y-127057085D01*
X149182762Y-127905000D01*
X118475000Y-127905000D01*
X118475000Y-127093658D01*
X118545907Y-127145431D01*
X118838071Y-127280957D01*
X119151061Y-127356881D01*
X119472847Y-127370285D01*
X119791068Y-127320654D01*
X120093491Y-127209894D01*
X120368494Y-127042263D01*
X120605510Y-126824203D01*
X120747836Y-126629277D01*
X129048186Y-112543835D01*
X135075122Y-106980511D01*
X135248715Y-106927852D01*
X135532752Y-106776031D01*
X135781714Y-106571714D01*
X135986031Y-106322752D01*
X136137852Y-106038715D01*
X136160001Y-105965700D01*
X136160001Y-106599671D01*
X136152089Y-106680000D01*
X136183658Y-107000516D01*
X136277148Y-107308714D01*
X136428970Y-107592752D01*
X136633287Y-107841714D01*
X136695682Y-107892920D01*
X137965676Y-109162915D01*
X138152247Y-109316030D01*
X138436285Y-109467851D01*
X138744483Y-109561342D01*
X139064999Y-109592911D01*
X139385516Y-109561342D01*
X139693714Y-109467851D01*
X139970001Y-109320173D01*
X139970001Y-109812761D01*
X139657762Y-110125000D01*
X134105322Y-110125000D01*
X134025000Y-110117089D01*
X133704483Y-110148657D01*
X133396285Y-110242148D01*
X133112248Y-110393969D01*
X132863286Y-110598286D01*
X132812079Y-110660682D01*
X131502085Y-111970677D01*
X131348970Y-112157248D01*
X131197148Y-112441286D01*
X131103658Y-112749484D01*
X131072089Y-113070000D01*
X131103658Y-113390516D01*
X131197148Y-113698714D01*
X131348970Y-113982752D01*
X131553287Y-114231713D01*
X131802248Y-114436030D01*
X131817208Y-114444026D01*
X131800241Y-114455363D01*
X131600363Y-114655241D01*
X131443320Y-114890273D01*
X131335147Y-115151426D01*
X131280000Y-115428665D01*
X131280000Y-115711335D01*
X131335147Y-115988574D01*
X131443320Y-116249727D01*
X131600363Y-116484759D01*
X131800241Y-116684637D01*
X132035273Y-116841680D01*
X132296426Y-116949853D01*
X132573665Y-117005000D01*
X132856335Y-117005000D01*
X133133574Y-116949853D01*
X133394727Y-116841680D01*
X133629759Y-116684637D01*
X133829637Y-116484759D01*
X133986680Y-116249727D01*
X134094853Y-115988574D01*
X134150000Y-115711335D01*
X134150000Y-115428665D01*
X134094853Y-115151426D01*
X133986680Y-114890273D01*
X133906317Y-114770000D01*
X137626928Y-114770000D01*
X137626928Y-116370000D01*
X137639188Y-116494482D01*
X137675498Y-116614180D01*
X137734463Y-116724494D01*
X137813815Y-116821185D01*
X137910506Y-116900537D01*
X138020820Y-116959502D01*
X138140518Y-116995812D01*
X138265000Y-117008072D01*
X139865000Y-117008072D01*
X139989482Y-116995812D01*
X140109180Y-116959502D01*
X140219494Y-116900537D01*
X140316185Y-116821185D01*
X140395537Y-116724494D01*
X140454502Y-116614180D01*
X140490812Y-116494482D01*
X140491643Y-116486039D01*
X140690241Y-116684637D01*
X140925273Y-116841680D01*
X141186426Y-116949853D01*
X141463665Y-117005000D01*
X141746335Y-117005000D01*
X142023574Y-116949853D01*
X142284727Y-116841680D01*
X142519759Y-116684637D01*
X142719637Y-116484759D01*
X142875000Y-116252241D01*
X143030363Y-116484759D01*
X143230241Y-116684637D01*
X143465273Y-116841680D01*
X143726426Y-116949853D01*
X144003665Y-117005000D01*
X144286335Y-117005000D01*
X144563574Y-116949853D01*
X144824727Y-116841680D01*
X145059759Y-116684637D01*
X145259637Y-116484759D01*
X145415000Y-116252241D01*
X145570363Y-116484759D01*
X145770241Y-116684637D01*
X146005273Y-116841680D01*
X146266426Y-116949853D01*
X146543665Y-117005000D01*
X146826335Y-117005000D01*
X147103574Y-116949853D01*
X147364727Y-116841680D01*
X147599759Y-116684637D01*
X147799637Y-116484759D01*
X147956680Y-116249727D01*
X148064853Y-115988574D01*
X148120000Y-115711335D01*
X148120000Y-115428665D01*
X148064853Y-115151426D01*
X147956680Y-114890273D01*
X147799637Y-114655241D01*
X147599759Y-114455363D01*
X147364727Y-114298320D01*
X147103574Y-114190147D01*
X146826335Y-114135000D01*
X146543665Y-114135000D01*
X146266426Y-114190147D01*
X146005273Y-114298320D01*
X145770241Y-114455363D01*
X145570363Y-114655241D01*
X145415000Y-114887759D01*
X145259637Y-114655241D01*
X145059759Y-114455363D01*
X144824727Y-114298320D01*
X144563574Y-114190147D01*
X144286335Y-114135000D01*
X144003665Y-114135000D01*
X143726426Y-114190147D01*
X143465273Y-114298320D01*
X143230241Y-114455363D01*
X143030363Y-114655241D01*
X142875000Y-114887759D01*
X142719637Y-114655241D01*
X142519759Y-114455363D01*
X142284727Y-114298320D01*
X142023574Y-114190147D01*
X141746335Y-114135000D01*
X141463665Y-114135000D01*
X141186426Y-114190147D01*
X140925273Y-114298320D01*
X140690241Y-114455363D01*
X140491643Y-114653961D01*
X140490812Y-114645518D01*
X140454502Y-114525820D01*
X140395537Y-114415506D01*
X140316185Y-114318815D01*
X140219494Y-114239463D01*
X140109180Y-114180498D01*
X139989482Y-114144188D01*
X139865000Y-114131928D01*
X138265000Y-114131928D01*
X138140518Y-114144188D01*
X138020820Y-114180498D01*
X137910506Y-114239463D01*
X137813815Y-114318815D01*
X137734463Y-114415506D01*
X137675498Y-114525820D01*
X137639188Y-114645518D01*
X137626928Y-114770000D01*
X133906317Y-114770000D01*
X133829637Y-114655241D01*
X133629759Y-114455363D01*
X133612792Y-114444026D01*
X133627752Y-114436030D01*
X133814323Y-114282915D01*
X134702239Y-113395000D01*
X140254681Y-113395000D01*
X140335000Y-113402911D01*
X140415319Y-113395000D01*
X140415322Y-113395000D01*
X140655516Y-113371343D01*
X140963715Y-113277852D01*
X141247752Y-113126031D01*
X141496714Y-112921714D01*
X141547924Y-112859314D01*
X142704318Y-111702921D01*
X142766714Y-111651714D01*
X142875000Y-111519766D01*
X142983286Y-111651714D01*
X143045686Y-111702924D01*
X144202079Y-112859318D01*
X144253286Y-112921714D01*
X144502248Y-113126031D01*
X144786285Y-113277852D01*
X145094484Y-113371343D01*
X145334678Y-113395000D01*
X145334680Y-113395000D01*
X145414999Y-113402911D01*
X145495319Y-113395000D01*
X151722762Y-113395000D01*
X153305000Y-114977239D01*
X153305000Y-116920321D01*
X153305001Y-116920328D01*
X153305000Y-119934678D01*
X153297089Y-120015000D01*
X153305000Y-120095319D01*
X153305000Y-120095321D01*
X153305001Y-120095330D01*
X153305000Y-122000321D01*
X153328657Y-122240515D01*
X153422148Y-122548714D01*
X153573969Y-122832751D01*
X153778286Y-123081714D01*
X154027248Y-123286031D01*
X154311285Y-123437852D01*
X154619484Y-123531343D01*
X154940000Y-123562911D01*
X155260515Y-123531343D01*
X155568714Y-123437852D01*
X155852751Y-123286031D01*
X156101714Y-123081714D01*
X156306031Y-122832752D01*
X156457852Y-122548715D01*
X156551343Y-122240516D01*
X156575000Y-122000322D01*
X156575000Y-121015000D01*
X161209681Y-121015000D01*
X161290000Y-121022911D01*
X161370319Y-121015000D01*
X161370322Y-121015000D01*
X161610516Y-120991343D01*
X161918715Y-120897852D01*
X162202752Y-120746031D01*
X162451714Y-120541714D01*
X162502924Y-120479314D01*
X163659318Y-119322921D01*
X163721714Y-119271714D01*
X163926031Y-119022752D01*
X164077852Y-118738715D01*
X164171343Y-118430516D01*
X164195000Y-118190322D01*
X164195000Y-118190320D01*
X164202911Y-118110001D01*
X164195000Y-118029681D01*
X164195000Y-117205000D01*
X167559681Y-117205000D01*
X167640000Y-117212911D01*
X167720319Y-117205000D01*
X167720322Y-117205000D01*
X167960516Y-117181343D01*
X168268715Y-117087852D01*
X168552752Y-116936031D01*
X168801714Y-116731714D01*
X168852925Y-116669313D01*
X171392915Y-114129324D01*
X171546030Y-113942753D01*
X171697851Y-113658716D01*
X171791342Y-113350517D01*
X171822911Y-113030001D01*
X171791342Y-112709484D01*
X171697851Y-112401286D01*
X171546030Y-112117248D01*
X171418072Y-111961331D01*
X171418072Y-111160000D01*
X171405812Y-111035518D01*
X171369502Y-110915820D01*
X171310537Y-110805506D01*
X171231185Y-110708815D01*
X171134494Y-110629463D01*
X171084053Y-110602501D01*
X171139287Y-110547267D01*
X171274443Y-110344992D01*
X171367540Y-110120236D01*
X171415000Y-109881637D01*
X171415000Y-109638363D01*
X171367540Y-109399764D01*
X171274443Y-109175008D01*
X171139287Y-108972733D01*
X170967267Y-108800713D01*
X170764992Y-108665557D01*
X170540236Y-108572460D01*
X170301637Y-108525000D01*
X170058363Y-108525000D01*
X169819764Y-108572460D01*
X169595008Y-108665557D01*
X169392733Y-108800713D01*
X169220713Y-108972733D01*
X169085557Y-109175008D01*
X168992460Y-109399764D01*
X168945000Y-109638363D01*
X168945000Y-109881637D01*
X168992460Y-110120236D01*
X169085557Y-110344992D01*
X169220713Y-110547267D01*
X169275947Y-110602501D01*
X169225506Y-110629463D01*
X169128815Y-110708815D01*
X169049463Y-110805506D01*
X168990498Y-110915820D01*
X168954188Y-111035518D01*
X168941928Y-111160000D01*
X168941928Y-111955833D01*
X166962762Y-113935000D01*
X162640322Y-113935000D01*
X162560000Y-113927089D01*
X162479678Y-113935000D01*
X162239484Y-113958657D01*
X161931285Y-114052148D01*
X161647248Y-114203969D01*
X161398286Y-114408286D01*
X161193969Y-114657248D01*
X161168196Y-114705466D01*
X161134637Y-114655241D01*
X160934759Y-114455363D01*
X160699727Y-114298320D01*
X160438574Y-114190147D01*
X160161335Y-114135000D01*
X159878665Y-114135000D01*
X159601426Y-114190147D01*
X159340273Y-114298320D01*
X159105241Y-114455363D01*
X158905363Y-114655241D01*
X158750000Y-114887759D01*
X158594637Y-114655241D01*
X158394759Y-114455363D01*
X158159727Y-114298320D01*
X157898574Y-114190147D01*
X157621335Y-114135000D01*
X157338665Y-114135000D01*
X157061426Y-114190147D01*
X156800273Y-114298320D01*
X156575000Y-114448842D01*
X156575000Y-114380319D01*
X156582911Y-114299999D01*
X156571141Y-114180498D01*
X156551343Y-113979484D01*
X156457852Y-113671285D01*
X156306031Y-113387248D01*
X156101714Y-113138286D01*
X156039319Y-113087080D01*
X153612925Y-110660687D01*
X153561714Y-110598286D01*
X153312752Y-110393969D01*
X153028715Y-110242148D01*
X152720516Y-110148657D01*
X152480322Y-110125000D01*
X152480319Y-110125000D01*
X152400000Y-110117089D01*
X152319681Y-110125000D01*
X146092239Y-110125000D01*
X145780000Y-109812762D01*
X145780000Y-109320175D01*
X146056285Y-109467852D01*
X146364484Y-109561343D01*
X146685000Y-109592911D01*
X147005515Y-109561343D01*
X147313714Y-109467852D01*
X147597751Y-109316031D01*
X147846714Y-109111714D01*
X148051031Y-108862752D01*
X148202852Y-108578715D01*
X148296343Y-108270516D01*
X148320000Y-108030322D01*
X148320000Y-107950000D01*
X149487089Y-107950000D01*
X149518657Y-108270516D01*
X149612148Y-108578715D01*
X149763969Y-108862752D01*
X149968286Y-109111714D01*
X150217248Y-109316031D01*
X150501285Y-109467852D01*
X150809484Y-109561343D01*
X151049678Y-109585000D01*
X154859678Y-109585000D01*
X154940000Y-109592911D01*
X155020322Y-109585000D01*
X155260516Y-109561343D01*
X155568715Y-109467852D01*
X155852752Y-109316031D01*
X156101714Y-109111714D01*
X156306031Y-108862752D01*
X156331804Y-108814534D01*
X156365363Y-108864759D01*
X156565241Y-109064637D01*
X156800273Y-109221680D01*
X157061426Y-109329853D01*
X157338665Y-109385000D01*
X157621335Y-109385000D01*
X157898574Y-109329853D01*
X158159727Y-109221680D01*
X158394759Y-109064637D01*
X158594637Y-108864759D01*
X158750000Y-108632241D01*
X158905363Y-108864759D01*
X159105241Y-109064637D01*
X159340273Y-109221680D01*
X159601426Y-109329853D01*
X159878665Y-109385000D01*
X160161335Y-109385000D01*
X160438574Y-109329853D01*
X160699727Y-109221680D01*
X160934759Y-109064637D01*
X161134637Y-108864759D01*
X161290000Y-108632241D01*
X161445363Y-108864759D01*
X161645241Y-109064637D01*
X161880273Y-109221680D01*
X162141426Y-109329853D01*
X162418665Y-109385000D01*
X162701335Y-109385000D01*
X162978574Y-109329853D01*
X163239727Y-109221680D01*
X163474759Y-109064637D01*
X163674637Y-108864759D01*
X163831680Y-108629727D01*
X163939853Y-108368574D01*
X163995000Y-108091335D01*
X163995000Y-107808665D01*
X163939853Y-107531426D01*
X163831680Y-107270273D01*
X163674637Y-107035241D01*
X163474759Y-106835363D01*
X163239727Y-106678320D01*
X162978574Y-106570147D01*
X162701335Y-106515000D01*
X162418665Y-106515000D01*
X162141426Y-106570147D01*
X161880273Y-106678320D01*
X161645241Y-106835363D01*
X161445363Y-107035241D01*
X161290000Y-107267759D01*
X161134637Y-107035241D01*
X160934759Y-106835363D01*
X160699727Y-106678320D01*
X160438574Y-106570147D01*
X160161335Y-106515000D01*
X159878665Y-106515000D01*
X159601426Y-106570147D01*
X159340273Y-106678320D01*
X159105241Y-106835363D01*
X158905363Y-107035241D01*
X158750000Y-107267759D01*
X158594637Y-107035241D01*
X158394759Y-106835363D01*
X158159727Y-106678320D01*
X157898574Y-106570147D01*
X157621335Y-106515000D01*
X157338665Y-106515000D01*
X157061426Y-106570147D01*
X156800273Y-106678320D01*
X156575000Y-106828842D01*
X156575000Y-103547238D01*
X156887239Y-103235000D01*
X159900314Y-103235000D01*
X160140508Y-103211343D01*
X160448707Y-103117852D01*
X160732744Y-102966031D01*
X160981706Y-102761714D01*
X161186023Y-102512752D01*
X161186084Y-102512638D01*
X161232733Y-102559287D01*
X161435008Y-102694443D01*
X161659764Y-102787540D01*
X161898363Y-102835000D01*
X162141637Y-102835000D01*
X162380236Y-102787540D01*
X162604992Y-102694443D01*
X162807267Y-102559287D01*
X162979287Y-102387267D01*
X163114443Y-102184992D01*
X163207540Y-101960236D01*
X163255000Y-101721637D01*
X163255000Y-101478363D01*
X163207540Y-101239764D01*
X163114443Y-101015008D01*
X162979287Y-100812733D01*
X162807267Y-100640713D01*
X162604992Y-100505557D01*
X162380236Y-100412460D01*
X162141637Y-100365000D01*
X161898363Y-100365000D01*
X161659764Y-100412460D01*
X161435008Y-100505557D01*
X161232733Y-100640713D01*
X161186084Y-100687362D01*
X161186023Y-100687248D01*
X160981706Y-100438286D01*
X160732744Y-100233969D01*
X160448707Y-100082148D01*
X160140508Y-99988657D01*
X159900314Y-99965000D01*
X156290319Y-99965000D01*
X156209999Y-99957089D01*
X156129680Y-99965000D01*
X156129678Y-99965000D01*
X155889484Y-99988657D01*
X155581285Y-100082148D01*
X155297248Y-100233969D01*
X155048286Y-100438286D01*
X154997079Y-100500682D01*
X153840682Y-101657080D01*
X153778287Y-101708286D01*
X153573970Y-101957248D01*
X153422148Y-102241286D01*
X153328658Y-102549484D01*
X153297089Y-102870000D01*
X153305001Y-102950329D01*
X153305000Y-106315000D01*
X151049678Y-106315000D01*
X150809484Y-106338657D01*
X150501285Y-106432148D01*
X150217248Y-106583969D01*
X149968286Y-106788286D01*
X149763969Y-107037248D01*
X149612148Y-107321285D01*
X149518657Y-107629484D01*
X149487089Y-107950000D01*
X148320000Y-107950000D01*
X148320000Y-90250319D01*
X148327911Y-90169999D01*
X148318453Y-90073969D01*
X148296343Y-89849484D01*
X148202852Y-89541285D01*
X148051031Y-89257248D01*
X147846714Y-89008286D01*
X147784318Y-88957079D01*
X147170639Y-88343400D01*
X147050000Y-88052152D01*
X147050000Y-83585958D01*
X147129775Y-83466566D01*
X147275639Y-83114419D01*
X147350000Y-82740581D01*
X147350000Y-82359419D01*
X147275639Y-81985581D01*
X147129775Y-81633434D01*
X146918013Y-81316509D01*
X146648491Y-81046987D01*
X146331566Y-80835225D01*
X145979419Y-80689361D01*
X145605581Y-80615000D01*
X145224419Y-80615000D01*
X144850581Y-80689361D01*
X144498434Y-80835225D01*
X144181509Y-81046987D01*
X143911987Y-81316509D01*
X143700225Y-81633434D01*
X143554361Y-81985581D01*
X143480000Y-82359419D01*
X143480000Y-82740581D01*
X143554361Y-83114419D01*
X143700225Y-83466566D01*
X143780001Y-83585959D01*
X143780000Y-88052152D01*
X143650518Y-88364750D01*
X143580000Y-88719268D01*
X143580000Y-89080732D01*
X143650518Y-89435250D01*
X143788844Y-89769199D01*
X143989662Y-90069744D01*
X144245256Y-90325338D01*
X144545801Y-90526156D01*
X144858400Y-90655639D01*
X145050001Y-90847240D01*
X145050000Y-106579826D01*
X144773715Y-106432148D01*
X144465516Y-106338657D01*
X144145000Y-106307089D01*
X143824485Y-106338657D01*
X143516286Y-106432148D01*
X143240000Y-106579826D01*
X143240000Y-104059678D01*
X143216343Y-103819484D01*
X143122852Y-103511285D01*
X142971031Y-103227248D01*
X142766714Y-102978286D01*
X142517752Y-102773969D01*
X142233715Y-102622148D01*
X141925516Y-102528657D01*
X141605000Y-102497089D01*
X141284485Y-102528657D01*
X140976286Y-102622148D01*
X140692249Y-102773969D01*
X140443287Y-102978286D01*
X140238970Y-103227248D01*
X140087149Y-103511285D01*
X139993658Y-103819484D01*
X139970001Y-104059678D01*
X139970000Y-106542762D01*
X139430000Y-106002762D01*
X139430000Y-102277238D01*
X142704324Y-99002916D01*
X142766714Y-98951714D01*
X142971031Y-98702752D01*
X143122852Y-98418715D01*
X143205200Y-98147249D01*
X143216343Y-98110517D01*
X143247911Y-97790000D01*
X143240000Y-97709678D01*
X143240000Y-93899678D01*
X143216343Y-93659484D01*
X143122852Y-93351285D01*
X142971031Y-93067248D01*
X142766714Y-92818286D01*
X142517751Y-92613969D01*
X142233714Y-92462148D01*
X141925515Y-92368657D01*
X141605000Y-92337089D01*
X141284484Y-92368657D01*
X140976285Y-92462148D01*
X140692248Y-92613969D01*
X140443286Y-92818286D01*
X140238969Y-93067249D01*
X140087148Y-93351286D01*
X139993657Y-93659485D01*
X139970000Y-93899679D01*
X139970001Y-97112759D01*
X136695687Y-100387075D01*
X136633286Y-100438286D01*
X136428969Y-100687249D01*
X136277148Y-100971286D01*
X136255000Y-101044298D01*
X136255000Y-99737238D01*
X138894319Y-97097920D01*
X138956714Y-97046714D01*
X139161031Y-96797752D01*
X139312852Y-96513715D01*
X139406343Y-96205516D01*
X139430000Y-95965322D01*
X139430000Y-95965320D01*
X139437911Y-95885001D01*
X139430000Y-95804681D01*
X139430000Y-91520319D01*
X139437911Y-91439999D01*
X139427246Y-91331714D01*
X139406343Y-91119484D01*
X139312852Y-90811285D01*
X139161031Y-90527248D01*
X138956714Y-90278286D01*
X138894320Y-90227081D01*
X136467925Y-87800687D01*
X136416714Y-87738286D01*
X136167752Y-87533969D01*
X135883715Y-87382148D01*
X135575516Y-87288657D01*
X135335322Y-87265000D01*
X135335319Y-87265000D01*
X135255000Y-87257089D01*
X135174681Y-87265000D01*
X134379468Y-87265000D01*
X134366185Y-87248815D01*
X134350000Y-87235532D01*
X134350000Y-86045685D01*
X136638215Y-82180553D01*
X136661031Y-82152752D01*
X136720122Y-82042201D01*
X136742851Y-82003808D01*
X136757952Y-81971426D01*
X136812852Y-81868715D01*
X136825885Y-81825750D01*
X136844857Y-81785067D01*
X136872537Y-81671961D01*
X136906343Y-81560516D01*
X136910743Y-81515838D01*
X136921415Y-81472231D01*
X136926496Y-81355894D01*
X136930000Y-81320322D01*
X136930000Y-81275682D01*
X136935469Y-81150472D01*
X136930000Y-81114934D01*
X136930000Y-78901670D01*
X136995000Y-78908072D01*
X138595000Y-78908072D01*
X138719482Y-78895812D01*
X138839180Y-78859502D01*
X138949494Y-78800537D01*
X139046185Y-78721185D01*
X139125537Y-78624494D01*
X139184502Y-78514180D01*
X139220812Y-78394482D01*
X139233072Y-78270000D01*
X139233072Y-77359419D01*
X143480000Y-77359419D01*
X143480000Y-77740581D01*
X143554361Y-78114419D01*
X143700225Y-78466566D01*
X143911987Y-78783491D01*
X144181509Y-79053013D01*
X144498434Y-79264775D01*
X144850581Y-79410639D01*
X145224419Y-79485000D01*
X145605581Y-79485000D01*
X145979419Y-79410639D01*
X146331566Y-79264775D01*
X146648491Y-79053013D01*
X146918013Y-78783491D01*
X147129775Y-78466566D01*
X147275639Y-78114419D01*
X147350000Y-77740581D01*
X147350000Y-77359419D01*
X147275639Y-76985581D01*
X147129775Y-76633434D01*
X146918013Y-76316509D01*
X146648491Y-76046987D01*
X146331566Y-75835225D01*
X145979419Y-75689361D01*
X145605581Y-75615000D01*
X145224419Y-75615000D01*
X144850581Y-75689361D01*
X144498434Y-75835225D01*
X144181509Y-76046987D01*
X143911987Y-76316509D01*
X143700225Y-76633434D01*
X143554361Y-76985581D01*
X143480000Y-77359419D01*
X139233072Y-77359419D01*
X139233072Y-76670000D01*
X139220812Y-76545518D01*
X139184502Y-76425820D01*
X139125537Y-76315506D01*
X139046185Y-76218815D01*
X138949494Y-76139463D01*
X138839180Y-76080498D01*
X138719482Y-76044188D01*
X138595000Y-76031928D01*
X136995000Y-76031928D01*
X136870518Y-76044188D01*
X136750820Y-76080498D01*
X136640506Y-76139463D01*
X136543815Y-76218815D01*
X136464463Y-76315506D01*
X136463744Y-76316852D01*
X136456714Y-76308286D01*
X136207751Y-76103969D01*
X135923714Y-75952148D01*
X135615515Y-75858657D01*
X135295000Y-75827089D01*
X134974484Y-75858657D01*
X134666285Y-75952148D01*
X134382248Y-76103969D01*
X134133286Y-76308286D01*
X133928969Y-76557249D01*
X133777148Y-76841286D01*
X133683657Y-77149485D01*
X133660000Y-77389679D01*
X133660001Y-80792312D01*
X131371785Y-84657448D01*
X131348969Y-84685249D01*
X131289878Y-84795800D01*
X131267149Y-84834193D01*
X131252048Y-84866575D01*
X131197148Y-84969286D01*
X131184115Y-85012251D01*
X131165143Y-85052934D01*
X131137463Y-85166040D01*
X131103657Y-85277485D01*
X131099257Y-85322163D01*
X131088585Y-85365770D01*
X131083504Y-85482107D01*
X131080000Y-85517679D01*
X131080000Y-85562318D01*
X131074531Y-85687528D01*
X131080000Y-85723066D01*
X131080000Y-86370057D01*
X127958490Y-84185000D01*
X129459678Y-84185000D01*
X129540000Y-84192911D01*
X129699030Y-84177248D01*
X129860516Y-84161343D01*
X130168715Y-84067852D01*
X130452752Y-83916031D01*
X130701714Y-83711714D01*
X130906031Y-83462752D01*
X131057852Y-83178715D01*
X131151343Y-82870516D01*
X131182911Y-82550000D01*
X131175000Y-82469678D01*
X131175000Y-72470322D01*
X131182911Y-72390000D01*
X131151343Y-72069484D01*
X131057852Y-71761285D01*
X130906031Y-71477248D01*
X130701714Y-71228286D01*
X130452752Y-71023969D01*
X130168715Y-70872148D01*
X129860516Y-70778657D01*
X129620322Y-70755000D01*
X129540000Y-70747089D01*
X129459678Y-70755000D01*
X109897240Y-70755000D01*
X108772112Y-69629872D01*
X175565000Y-69629872D01*
X175565000Y-70070128D01*
X175650890Y-70501925D01*
X175819369Y-70908669D01*
X176063962Y-71274729D01*
X176375271Y-71586038D01*
X176741331Y-71830631D01*
X177148075Y-71999110D01*
X177579872Y-72085000D01*
X178020128Y-72085000D01*
X178451925Y-71999110D01*
X178858669Y-71830631D01*
X179224729Y-71586038D01*
X179536038Y-71274729D01*
X179780631Y-70908669D01*
X179949110Y-70501925D01*
X180035000Y-70070128D01*
X180035000Y-69629872D01*
X179949110Y-69198075D01*
X179780631Y-68791331D01*
X179536038Y-68425271D01*
X179224729Y-68113962D01*
X178858669Y-67869369D01*
X178451925Y-67700890D01*
X178020128Y-67615000D01*
X177579872Y-67615000D01*
X177148075Y-67700890D01*
X176741331Y-67869369D01*
X176375271Y-68113962D01*
X176063962Y-68425271D01*
X175819369Y-68791331D01*
X175650890Y-69198075D01*
X175565000Y-69629872D01*
X108772112Y-69629872D01*
X106622925Y-67480687D01*
X106571714Y-67418286D01*
X106322752Y-67213969D01*
X106038715Y-67062148D01*
X105730516Y-66968657D01*
X105490322Y-66945000D01*
X105490319Y-66945000D01*
X105410000Y-66937089D01*
X105329681Y-66945000D01*
X77550322Y-66945000D01*
X77470000Y-66937089D01*
X77149483Y-66968657D01*
X76841285Y-67062148D01*
X76557248Y-67213969D01*
X76308286Y-67418286D01*
X76257079Y-67480682D01*
X74465682Y-69272080D01*
X74403287Y-69323286D01*
X74264210Y-69492753D01*
X74198970Y-69572248D01*
X74047148Y-69856286D01*
X73953658Y-70164484D01*
X73922089Y-70485000D01*
X73930001Y-70565329D01*
X73930001Y-72025000D01*
X67229678Y-72025000D01*
X66989484Y-72048657D01*
X66681285Y-72142148D01*
X66397248Y-72293969D01*
X66148286Y-72498286D01*
X65943969Y-72747248D01*
X65792148Y-73031285D01*
X65698657Y-73339484D01*
X65667089Y-73660000D01*
X56540000Y-73660000D01*
X56540000Y-68359872D01*
X59995000Y-68359872D01*
X59995000Y-68800128D01*
X60080890Y-69231925D01*
X60249369Y-69638669D01*
X60493962Y-70004729D01*
X60805271Y-70316038D01*
X61171331Y-70560631D01*
X61578075Y-70729110D01*
X62009872Y-70815000D01*
X62450128Y-70815000D01*
X62881925Y-70729110D01*
X63288669Y-70560631D01*
X63654729Y-70316038D01*
X63966038Y-70004729D01*
X64210631Y-69638669D01*
X64379110Y-69231925D01*
X64465000Y-68800128D01*
X64465000Y-68359872D01*
X64379110Y-67928075D01*
X64210631Y-67521331D01*
X63966038Y-67155271D01*
X63654729Y-66843962D01*
X63288669Y-66599369D01*
X62881925Y-66430890D01*
X62450128Y-66345000D01*
X62009872Y-66345000D01*
X61578075Y-66430890D01*
X61171331Y-66599369D01*
X60805271Y-66843962D01*
X60493962Y-67155271D01*
X60249369Y-67521331D01*
X60080890Y-67928075D01*
X59995000Y-68359872D01*
X56540000Y-68359872D01*
X56540000Y-64160000D01*
X189840001Y-64160000D01*
X189840000Y-151740000D01*
%TA.AperFunction,Conductor*%
D25*
G36*
X189840000Y-151740000D02*
G01*
X56540000Y-151740000D01*
X56540000Y-145829872D01*
X59995000Y-145829872D01*
X59995000Y-146270128D01*
X60080890Y-146701925D01*
X60249369Y-147108669D01*
X60493962Y-147474729D01*
X60805271Y-147786038D01*
X61171331Y-148030631D01*
X61578075Y-148199110D01*
X62009872Y-148285000D01*
X62450128Y-148285000D01*
X62881925Y-148199110D01*
X63288669Y-148030631D01*
X63654729Y-147786038D01*
X63966038Y-147474729D01*
X64210631Y-147108669D01*
X64379110Y-146701925D01*
X64465000Y-146270128D01*
X64465000Y-145829872D01*
X175565000Y-145829872D01*
X175565000Y-146270128D01*
X175650890Y-146701925D01*
X175819369Y-147108669D01*
X176063962Y-147474729D01*
X176375271Y-147786038D01*
X176741331Y-148030631D01*
X177148075Y-148199110D01*
X177579872Y-148285000D01*
X178020128Y-148285000D01*
X178451925Y-148199110D01*
X178858669Y-148030631D01*
X179224729Y-147786038D01*
X179536038Y-147474729D01*
X179780631Y-147108669D01*
X179949110Y-146701925D01*
X180035000Y-146270128D01*
X180035000Y-145829872D01*
X179949110Y-145398075D01*
X179780631Y-144991331D01*
X179536038Y-144625271D01*
X179224729Y-144313962D01*
X178858669Y-144069369D01*
X178451925Y-143900890D01*
X178020128Y-143815000D01*
X177579872Y-143815000D01*
X177148075Y-143900890D01*
X176741331Y-144069369D01*
X176375271Y-144313962D01*
X176063962Y-144625271D01*
X175819369Y-144991331D01*
X175650890Y-145398075D01*
X175565000Y-145829872D01*
X64465000Y-145829872D01*
X64379110Y-145398075D01*
X64210631Y-144991331D01*
X63966038Y-144625271D01*
X63654729Y-144313962D01*
X63288669Y-144069369D01*
X62881925Y-143900890D01*
X62450128Y-143815000D01*
X62009872Y-143815000D01*
X61578075Y-143900890D01*
X61171331Y-144069369D01*
X60805271Y-144313962D01*
X60493962Y-144625271D01*
X60249369Y-144991331D01*
X60080890Y-145398075D01*
X59995000Y-145829872D01*
X56540000Y-145829872D01*
X56540000Y-73660000D01*
X65667089Y-73660000D01*
X65698657Y-73980516D01*
X65792148Y-74288715D01*
X65943969Y-74572752D01*
X66148286Y-74821714D01*
X66397248Y-75026031D01*
X66681285Y-75177852D01*
X66989484Y-75271343D01*
X67229678Y-75295000D01*
X75484678Y-75295000D01*
X75565000Y-75302911D01*
X75645322Y-75295000D01*
X75885516Y-75271343D01*
X76193715Y-75177852D01*
X76477752Y-75026031D01*
X76726714Y-74821714D01*
X76931031Y-74572752D01*
X77082852Y-74288715D01*
X77176343Y-73980516D01*
X77207911Y-73660000D01*
X77200000Y-73579678D01*
X77200000Y-71162238D01*
X78147239Y-70215000D01*
X104732762Y-70215000D01*
X108007084Y-73489324D01*
X108058286Y-73551714D01*
X108307248Y-73756031D01*
X108392006Y-73801335D01*
X108591285Y-73907852D01*
X108899483Y-74001343D01*
X109220000Y-74032911D01*
X109300322Y-74025000D01*
X115014297Y-74025000D01*
X114941285Y-74047148D01*
X114657248Y-74198969D01*
X114408286Y-74403286D01*
X114357079Y-74465682D01*
X112565682Y-76257080D01*
X112503287Y-76308286D01*
X112298970Y-76557248D01*
X112147148Y-76841285D01*
X112067151Y-77105000D01*
X111205319Y-77105000D01*
X111124999Y-77097089D01*
X111044680Y-77105000D01*
X111044678Y-77105000D01*
X110804484Y-77128657D01*
X110496285Y-77222148D01*
X110212248Y-77373969D01*
X109963286Y-77578286D01*
X109912079Y-77640682D01*
X108642085Y-78910677D01*
X108488970Y-79097248D01*
X108337148Y-79381286D01*
X108243658Y-79689484D01*
X108212089Y-80010000D01*
X108243658Y-80330516D01*
X108337148Y-80638714D01*
X108488970Y-80922752D01*
X108693287Y-81171713D01*
X108825234Y-81279999D01*
X108693286Y-81388286D01*
X108488969Y-81637248D01*
X108337148Y-81921285D01*
X108243657Y-82229484D01*
X108212089Y-82550000D01*
X108243657Y-82870516D01*
X108337148Y-83178715D01*
X108484825Y-83455000D01*
X107992239Y-83455000D01*
X107680000Y-83142762D01*
X107680000Y-81360319D01*
X107687911Y-81279999D01*
X107677246Y-81171714D01*
X107656343Y-80959484D01*
X107562852Y-80651285D01*
X107411031Y-80367248D01*
X107206714Y-80118286D01*
X107144318Y-80067079D01*
X105987924Y-78910686D01*
X105936714Y-78848286D01*
X105687752Y-78643969D01*
X105403715Y-78492148D01*
X105095516Y-78398657D01*
X104855322Y-78375000D01*
X104855319Y-78375000D01*
X104775000Y-78367089D01*
X104694681Y-78375000D01*
X103870000Y-78375000D01*
X103870000Y-73579678D01*
X103846343Y-73339484D01*
X103752852Y-73031285D01*
X103601031Y-72747248D01*
X103396714Y-72498286D01*
X103147751Y-72293969D01*
X102863714Y-72142148D01*
X102555515Y-72048657D01*
X102235000Y-72017089D01*
X101914484Y-72048657D01*
X101606285Y-72142148D01*
X101322248Y-72293969D01*
X101073286Y-72498286D01*
X100868969Y-72747249D01*
X100717148Y-73031286D01*
X100623657Y-73339485D01*
X100600000Y-73579679D01*
X100600001Y-79929668D01*
X100592089Y-80010000D01*
X100623657Y-80330516D01*
X100717148Y-80638715D01*
X100784094Y-80763963D01*
X99326703Y-79306572D01*
X99401343Y-79060516D01*
X99425000Y-78820322D01*
X99425000Y-76915319D01*
X99432911Y-76834999D01*
X99420465Y-76708637D01*
X99401343Y-76514484D01*
X99307852Y-76206285D01*
X99156031Y-75922248D01*
X98951714Y-75673286D01*
X98889319Y-75622080D01*
X95827925Y-72560687D01*
X95776714Y-72498286D01*
X95527752Y-72293969D01*
X95243715Y-72142148D01*
X94935516Y-72048657D01*
X94695322Y-72025000D01*
X94695319Y-72025000D01*
X94615000Y-72017089D01*
X94534681Y-72025000D01*
X91994678Y-72025000D01*
X91754484Y-72048657D01*
X91446285Y-72142148D01*
X91162248Y-72293969D01*
X90913286Y-72498286D01*
X90708969Y-72747248D01*
X90557148Y-73031285D01*
X90463657Y-73339484D01*
X90432089Y-73660000D01*
X90463657Y-73980516D01*
X90557148Y-74288715D01*
X90708969Y-74572752D01*
X90913286Y-74821714D01*
X91162248Y-75026031D01*
X91446285Y-75177852D01*
X91754484Y-75271343D01*
X91994678Y-75295000D01*
X93937762Y-75295000D01*
X96155001Y-77512239D01*
X96155000Y-78820321D01*
X96178657Y-79060515D01*
X96272148Y-79368714D01*
X96423969Y-79652751D01*
X96628286Y-79901714D01*
X96877248Y-80106031D01*
X96956361Y-80148318D01*
X96983551Y-80181449D01*
X97026865Y-80216996D01*
X100123009Y-83313141D01*
X100158551Y-83356449D01*
X100331377Y-83498284D01*
X100469568Y-83572148D01*
X100528553Y-83603676D01*
X100742501Y-83668577D01*
X100964999Y-83690491D01*
X101020751Y-83685000D01*
X101350716Y-83685000D01*
X101552759Y-83820000D01*
X101350716Y-83955000D01*
X100165132Y-83955000D01*
X99217850Y-83007718D01*
X99169853Y-82766426D01*
X99061680Y-82505273D01*
X98904637Y-82270241D01*
X98704759Y-82070363D01*
X98469727Y-81913320D01*
X98208574Y-81805147D01*
X97931335Y-81750000D01*
X97648665Y-81750000D01*
X97371426Y-81805147D01*
X97110273Y-81913320D01*
X96875241Y-82070363D01*
X96675363Y-82270241D01*
X96518320Y-82505273D01*
X96410147Y-82766426D01*
X96355000Y-83043665D01*
X96355000Y-83326335D01*
X96410147Y-83603574D01*
X96518320Y-83864727D01*
X96675363Y-84099759D01*
X96875241Y-84299637D01*
X97110273Y-84456680D01*
X97371426Y-84564853D01*
X97612718Y-84612850D01*
X97772368Y-84772500D01*
X96083681Y-86461188D01*
X95929727Y-86358320D01*
X95668574Y-86250147D01*
X95391335Y-86195000D01*
X95108665Y-86195000D01*
X94831426Y-86250147D01*
X94570273Y-86358320D01*
X94335241Y-86515363D01*
X94135363Y-86715241D01*
X93978320Y-86950273D01*
X93870147Y-87211426D01*
X93815000Y-87488665D01*
X93815000Y-87771335D01*
X93870147Y-88048574D01*
X93978320Y-88309727D01*
X94128842Y-88535000D01*
X90250322Y-88535000D01*
X90170000Y-88527089D01*
X90089678Y-88535000D01*
X89849484Y-88558657D01*
X89541285Y-88652148D01*
X89257248Y-88803969D01*
X89008286Y-89008286D01*
X88803969Y-89257248D01*
X88652148Y-89541285D01*
X88558657Y-89849484D01*
X88527089Y-90170000D01*
X88535000Y-90250322D01*
X88535001Y-97112760D01*
X86613863Y-99033898D01*
X86701343Y-98745516D01*
X86732911Y-98425000D01*
X86701343Y-98104484D01*
X86607852Y-97796285D01*
X86456031Y-97512248D01*
X86251714Y-97263286D01*
X86002752Y-97058969D01*
X85718715Y-96907148D01*
X85410516Y-96813657D01*
X85170322Y-96790000D01*
X83313549Y-96790000D01*
X83281475Y-96784925D01*
X83152794Y-96790000D01*
X83104678Y-96790000D01*
X83072543Y-96793165D01*
X82959659Y-96797617D01*
X82912630Y-96808915D01*
X82864484Y-96813657D01*
X82756354Y-96846458D01*
X82646502Y-96872848D01*
X82602578Y-96893105D01*
X82556285Y-96907148D01*
X82456630Y-96960415D01*
X82354040Y-97007728D01*
X82314913Y-97036164D01*
X82272248Y-97058969D01*
X82184902Y-97130652D01*
X82093509Y-97197073D01*
X82060681Y-97232596D01*
X82023286Y-97263286D01*
X81951599Y-97350637D01*
X81874925Y-97433608D01*
X81849659Y-97474852D01*
X81818969Y-97512248D01*
X81765703Y-97611901D01*
X81706687Y-97708239D01*
X81689952Y-97753621D01*
X81667148Y-97796285D01*
X81634348Y-97904412D01*
X81595259Y-98010416D01*
X81587700Y-98058192D01*
X81573657Y-98104484D01*
X81562581Y-98216943D01*
X81557539Y-98248807D01*
X81554716Y-98296792D01*
X81542089Y-98425000D01*
X81545273Y-98457328D01*
X81427715Y-100455811D01*
X81423000Y-100503679D01*
X81423000Y-100535958D01*
X81421105Y-100568173D01*
X81423000Y-100616219D01*
X81423001Y-129459668D01*
X81415089Y-129540000D01*
X81446657Y-129860516D01*
X81540148Y-130168715D01*
X81691969Y-130452752D01*
X81896286Y-130701714D01*
X82145248Y-130906031D01*
X82429285Y-131057852D01*
X82502297Y-131080000D01*
X73390000Y-131080000D01*
X73390000Y-83330508D01*
X81678136Y-76700000D01*
X87251668Y-76700000D01*
X87803965Y-77114223D01*
X87710322Y-77105000D01*
X82630319Y-77105000D01*
X82549999Y-77097089D01*
X82469680Y-77105000D01*
X82469678Y-77105000D01*
X82229484Y-77128657D01*
X81921285Y-77222148D01*
X81637248Y-77373969D01*
X81388286Y-77578286D01*
X81337080Y-77640681D01*
X78910687Y-80067075D01*
X78848286Y-80118286D01*
X78643969Y-80367249D01*
X78492148Y-80651286D01*
X78398657Y-80959485D01*
X78375000Y-81199678D01*
X78367089Y-81280000D01*
X78375000Y-81360319D01*
X78375000Y-82185000D01*
X75645322Y-82185000D01*
X75565000Y-82177089D01*
X75484678Y-82185000D01*
X75244484Y-82208657D01*
X74936285Y-82302148D01*
X74652248Y-82453969D01*
X74403286Y-82658286D01*
X74198969Y-82907248D01*
X74047148Y-83191285D01*
X73953657Y-83499484D01*
X73922089Y-83820000D01*
X73930000Y-83900321D01*
X73930001Y-100884671D01*
X73922089Y-100965000D01*
X73953658Y-101285516D01*
X74047148Y-101593714D01*
X74198970Y-101877752D01*
X74403287Y-102126714D01*
X74465682Y-102177920D01*
X77640676Y-105352915D01*
X77827247Y-105506030D01*
X78111285Y-105657852D01*
X78419483Y-105751342D01*
X78739999Y-105782911D01*
X79060516Y-105751342D01*
X79368714Y-105657852D01*
X79652752Y-105506030D01*
X79901713Y-105301713D01*
X80106030Y-105052752D01*
X80257852Y-104768714D01*
X80351342Y-104460516D01*
X80382911Y-104139999D01*
X80351342Y-103819483D01*
X80257852Y-103511285D01*
X80106030Y-103227247D01*
X79952915Y-103040676D01*
X77200000Y-100287762D01*
X77200000Y-93838665D01*
X78575000Y-93838665D01*
X78575000Y-94121335D01*
X78630147Y-94398574D01*
X78738320Y-94659727D01*
X78895363Y-94894759D01*
X79095241Y-95094637D01*
X79330273Y-95251680D01*
X79591426Y-95359853D01*
X79868665Y-95415000D01*
X80151335Y-95415000D01*
X80428574Y-95359853D01*
X80689727Y-95251680D01*
X80924759Y-95094637D01*
X81124637Y-94894759D01*
X81281680Y-94659727D01*
X81389853Y-94398574D01*
X81445000Y-94121335D01*
X81445000Y-93838665D01*
X83655000Y-93838665D01*
X83655000Y-94121335D01*
X83710147Y-94398574D01*
X83818320Y-94659727D01*
X83975363Y-94894759D01*
X84175241Y-95094637D01*
X84410273Y-95251680D01*
X84671426Y-95359853D01*
X84948665Y-95415000D01*
X85231335Y-95415000D01*
X85508574Y-95359853D01*
X85769727Y-95251680D01*
X86004759Y-95094637D01*
X86204637Y-94894759D01*
X86361680Y-94659727D01*
X86469853Y-94398574D01*
X86525000Y-94121335D01*
X86525000Y-93838665D01*
X86469853Y-93561426D01*
X86361680Y-93300273D01*
X86204637Y-93065241D01*
X86004759Y-92865363D01*
X85769727Y-92708320D01*
X85508574Y-92600147D01*
X85231335Y-92545000D01*
X84948665Y-92545000D01*
X84671426Y-92600147D01*
X84410273Y-92708320D01*
X84175241Y-92865363D01*
X83975363Y-93065241D01*
X83818320Y-93300273D01*
X83710147Y-93561426D01*
X83655000Y-93838665D01*
X81445000Y-93838665D01*
X81389853Y-93561426D01*
X81281680Y-93300273D01*
X81124637Y-93065241D01*
X80924759Y-92865363D01*
X80689727Y-92708320D01*
X80428574Y-92600147D01*
X80151335Y-92545000D01*
X79868665Y-92545000D01*
X79591426Y-92600147D01*
X79330273Y-92708320D01*
X79095241Y-92865363D01*
X78895363Y-93065241D01*
X78738320Y-93300273D01*
X78630147Y-93561426D01*
X78575000Y-93838665D01*
X77200000Y-93838665D01*
X77200000Y-87488665D01*
X83655000Y-87488665D01*
X83655000Y-87771335D01*
X83710147Y-88048574D01*
X83818320Y-88309727D01*
X83975363Y-88544759D01*
X84175241Y-88744637D01*
X84410273Y-88901680D01*
X84671426Y-89009853D01*
X84948665Y-89065000D01*
X85231335Y-89065000D01*
X85508574Y-89009853D01*
X85769727Y-88901680D01*
X86004759Y-88744637D01*
X86204637Y-88544759D01*
X86361680Y-88309727D01*
X86469853Y-88048574D01*
X86525000Y-87771335D01*
X86525000Y-87488665D01*
X86469853Y-87211426D01*
X86361680Y-86950273D01*
X86204637Y-86715241D01*
X86004759Y-86515363D01*
X85769727Y-86358320D01*
X85508574Y-86250147D01*
X85231335Y-86195000D01*
X84948665Y-86195000D01*
X84671426Y-86250147D01*
X84410273Y-86358320D01*
X84175241Y-86515363D01*
X83975363Y-86715241D01*
X83818320Y-86950273D01*
X83710147Y-87211426D01*
X83655000Y-87488665D01*
X77200000Y-87488665D01*
X77200000Y-85455000D01*
X79929678Y-85455000D01*
X80010000Y-85462911D01*
X80330516Y-85431343D01*
X80638715Y-85337852D01*
X80922752Y-85186031D01*
X81171714Y-84981714D01*
X81376031Y-84732752D01*
X81527852Y-84448715D01*
X81621343Y-84140516D01*
X81645000Y-83900322D01*
X81645000Y-83900321D01*
X81652911Y-83820000D01*
X81645000Y-83739678D01*
X81645000Y-81957238D01*
X83227239Y-80375000D01*
X87710322Y-80375000D01*
X87950516Y-80351343D01*
X88258715Y-80257852D01*
X88542752Y-80106031D01*
X88791714Y-79901714D01*
X88996031Y-79652752D01*
X89035000Y-79579846D01*
X89035000Y-80174868D01*
X87452718Y-81757150D01*
X87211426Y-81805147D01*
X86950273Y-81913320D01*
X86715241Y-82070363D01*
X86515363Y-82270241D01*
X86358320Y-82505273D01*
X86250147Y-82766426D01*
X86195000Y-83043665D01*
X86195000Y-83326335D01*
X86250147Y-83603574D01*
X86358320Y-83864727D01*
X86515363Y-84099759D01*
X86715241Y-84299637D01*
X86950273Y-84456680D01*
X87211426Y-84564853D01*
X87488665Y-84620000D01*
X87771335Y-84620000D01*
X88048574Y-84564853D01*
X88309727Y-84456680D01*
X88544759Y-84299637D01*
X88744637Y-84099759D01*
X88901680Y-83864727D01*
X89009853Y-83603574D01*
X89057850Y-83362282D01*
X90933141Y-81486991D01*
X90976449Y-81451449D01*
X91118284Y-81278623D01*
X91223676Y-81081447D01*
X91288577Y-80867499D01*
X91305000Y-80700752D01*
X91305000Y-80700743D01*
X91310490Y-80645001D01*
X91305000Y-80589259D01*
X91305000Y-77556782D01*
X91308801Y-77532072D01*
X91305000Y-77445200D01*
X91305000Y-77414248D01*
X91302563Y-77389506D01*
X91299028Y-77308710D01*
X91291628Y-77278481D01*
X91288577Y-77247501D01*
X91265097Y-77170099D01*
X91245868Y-77091546D01*
X91232711Y-77063338D01*
X91223676Y-77033553D01*
X91185549Y-76962222D01*
X91151363Y-76888927D01*
X91132958Y-76863830D01*
X91118284Y-76836377D01*
X91066974Y-76773856D01*
X91019145Y-76708637D01*
X90996194Y-76687610D01*
X90976449Y-76663551D01*
X90913925Y-76612239D01*
X90895601Y-76595451D01*
X90870848Y-76576886D01*
X90803623Y-76521716D01*
X90781573Y-76509930D01*
X88330851Y-74671889D01*
X88263623Y-74616716D01*
X88192287Y-74578587D01*
X88123146Y-74536639D01*
X88093897Y-74525996D01*
X88066447Y-74511324D01*
X87989045Y-74487844D01*
X87913047Y-74460191D01*
X87882288Y-74455459D01*
X87852499Y-74446423D01*
X87772009Y-74438495D01*
X87692072Y-74426199D01*
X87605201Y-74430000D01*
X81286998Y-74430000D01*
X81182388Y-74428694D01*
X81120328Y-74440235D01*
X81057501Y-74446423D01*
X81010680Y-74460626D01*
X80962581Y-74469571D01*
X80903960Y-74493000D01*
X80843553Y-74511324D01*
X80800408Y-74534386D01*
X80754973Y-74552544D01*
X80702051Y-74586958D01*
X80646377Y-74616716D01*
X80565471Y-74683114D01*
X71965801Y-81562851D01*
X71755000Y-81542089D01*
X71434485Y-81573657D01*
X71126286Y-81667148D01*
X70842249Y-81818969D01*
X70593287Y-82023286D01*
X70388970Y-82272248D01*
X70237149Y-82556285D01*
X70143658Y-82864484D01*
X70120001Y-83104678D01*
X70120000Y-107395321D01*
X70120001Y-107395331D01*
X70120000Y-132634678D01*
X70112089Y-132715000D01*
X70143657Y-133035516D01*
X70237148Y-133343715D01*
X70388969Y-133627752D01*
X70423248Y-133669521D01*
X70593286Y-133876714D01*
X70842248Y-134081031D01*
X71126285Y-134232852D01*
X71434484Y-134326343D01*
X71755000Y-134357911D01*
X71835322Y-134350000D01*
X96439678Y-134350000D01*
X96520000Y-134357911D01*
X96840516Y-134326343D01*
X97148715Y-134232852D01*
X97425001Y-134085174D01*
X97425001Y-135212760D01*
X97112762Y-135525000D01*
X69257239Y-135525000D01*
X68945000Y-135212762D01*
X68945000Y-83739678D01*
X68921343Y-83499484D01*
X68827852Y-83191285D01*
X68676031Y-82907248D01*
X68471714Y-82658286D01*
X68222751Y-82453969D01*
X67938714Y-82302148D01*
X67630515Y-82208657D01*
X67310000Y-82177089D01*
X66989484Y-82208657D01*
X66681285Y-82302148D01*
X66397248Y-82453969D01*
X66148286Y-82658286D01*
X65943969Y-82907249D01*
X65792148Y-83191286D01*
X65698657Y-83499485D01*
X65675000Y-83739679D01*
X65675001Y-105329669D01*
X65675000Y-105329679D01*
X65675001Y-106680001D01*
X65675000Y-135809681D01*
X65667089Y-135890000D01*
X65675000Y-135970319D01*
X65675000Y-135970321D01*
X65698657Y-136210515D01*
X65792148Y-136518714D01*
X65943969Y-136802751D01*
X66148286Y-137051714D01*
X66210686Y-137102924D01*
X67367079Y-138259318D01*
X67418286Y-138321714D01*
X67667248Y-138526031D01*
X67951285Y-138677852D01*
X68259484Y-138771343D01*
X68499678Y-138795000D01*
X68499680Y-138795000D01*
X68579999Y-138802911D01*
X68660319Y-138795000D01*
X97709681Y-138795000D01*
X97790000Y-138802911D01*
X97870319Y-138795000D01*
X97870322Y-138795000D01*
X98110516Y-138771343D01*
X98418715Y-138677852D01*
X98702752Y-138526031D01*
X98951714Y-138321714D01*
X99002924Y-138259314D01*
X100159318Y-137102921D01*
X100221714Y-137051714D01*
X100426031Y-136802752D01*
X100577852Y-136518715D01*
X100671343Y-136210516D01*
X100695000Y-135970322D01*
X100695000Y-135970320D01*
X100702911Y-135890001D01*
X100695000Y-135809681D01*
X100695000Y-126911293D01*
X100896589Y-127045990D01*
X101166842Y-127157932D01*
X101453740Y-127215000D01*
X101746260Y-127215000D01*
X102033158Y-127157932D01*
X102303411Y-127045990D01*
X102546632Y-126883475D01*
X102753475Y-126676632D01*
X102775151Y-126644191D01*
X102978287Y-126891714D01*
X103227249Y-127096031D01*
X103511286Y-127247852D01*
X103819485Y-127341343D01*
X104140000Y-127372911D01*
X104460516Y-127341343D01*
X104768715Y-127247852D01*
X105052752Y-127096031D01*
X105301714Y-126891714D01*
X105504849Y-126644192D01*
X105526525Y-126676632D01*
X105733368Y-126883475D01*
X105976589Y-127045990D01*
X106246842Y-127157932D01*
X106533740Y-127215000D01*
X106826260Y-127215000D01*
X107113158Y-127157932D01*
X107383411Y-127045990D01*
X107626632Y-126883475D01*
X107833475Y-126676632D01*
X107950000Y-126502240D01*
X108066525Y-126676632D01*
X108273368Y-126883475D01*
X108516589Y-127045990D01*
X108786842Y-127157932D01*
X109073740Y-127215000D01*
X109366260Y-127215000D01*
X109653158Y-127157932D01*
X109923411Y-127045990D01*
X110166632Y-126883475D01*
X110373475Y-126676632D01*
X110490000Y-126502240D01*
X110606525Y-126676632D01*
X110813368Y-126883475D01*
X111056589Y-127045990D01*
X111326842Y-127157932D01*
X111613740Y-127215000D01*
X111906260Y-127215000D01*
X112193158Y-127157932D01*
X112463411Y-127045990D01*
X112665001Y-126911292D01*
X112665000Y-133775126D01*
X112657098Y-133852866D01*
X112665000Y-133935752D01*
X112665000Y-133938321D01*
X112672646Y-134015957D01*
X112687664Y-134173479D01*
X112688404Y-134175946D01*
X112688657Y-134178515D01*
X112734690Y-134330265D01*
X112780191Y-134481968D01*
X112781399Y-134484245D01*
X112782148Y-134486714D01*
X112856898Y-134626562D01*
X112931124Y-134766478D01*
X112932752Y-134768475D01*
X112933969Y-134770751D01*
X113034654Y-134893438D01*
X113134662Y-135016077D01*
X113136646Y-135017716D01*
X113138286Y-135019714D01*
X113261065Y-135120476D01*
X113382984Y-135221171D01*
X113385250Y-135222391D01*
X113387248Y-135224031D01*
X113527281Y-135298880D01*
X113666545Y-135373879D01*
X113669006Y-135374634D01*
X113671285Y-135375852D01*
X113823191Y-135421932D01*
X113974451Y-135468333D01*
X113977013Y-135468593D01*
X113979484Y-135469343D01*
X114137284Y-135484885D01*
X114214570Y-135492741D01*
X114217130Y-135492749D01*
X114300000Y-135500911D01*
X114377773Y-135493251D01*
X154857130Y-135619749D01*
X154940000Y-135627911D01*
X155097834Y-135612366D01*
X155255478Y-135597336D01*
X155257944Y-135596596D01*
X155260516Y-135596343D01*
X155412397Y-135550270D01*
X155563968Y-135504809D01*
X155566244Y-135503602D01*
X155568715Y-135502852D01*
X155708695Y-135428031D01*
X155848478Y-135353876D01*
X155850473Y-135352249D01*
X155852752Y-135351031D01*
X155975517Y-135250281D01*
X156098077Y-135150338D01*
X156099716Y-135148354D01*
X156101714Y-135146714D01*
X156202476Y-135023935D01*
X156303171Y-134902016D01*
X156304391Y-134899750D01*
X156306031Y-134897752D01*
X156380880Y-134757719D01*
X156455879Y-134618455D01*
X156456634Y-134615994D01*
X156457852Y-134613715D01*
X156503932Y-134461809D01*
X156550333Y-134310549D01*
X156550593Y-134307987D01*
X156551343Y-134305516D01*
X156566902Y-134147544D01*
X156582902Y-133990134D01*
X156575000Y-133907248D01*
X156575000Y-126919678D01*
X156551343Y-126679484D01*
X156457852Y-126371285D01*
X156306031Y-126087248D01*
X156101714Y-125838286D01*
X155852751Y-125633969D01*
X155568714Y-125482148D01*
X155260515Y-125388657D01*
X154940000Y-125357089D01*
X154619484Y-125388657D01*
X154311285Y-125482148D01*
X154027248Y-125633969D01*
X153778286Y-125838286D01*
X153573969Y-126087249D01*
X153422148Y-126371286D01*
X153328657Y-126679485D01*
X153305000Y-126919679D01*
X153305001Y-132344883D01*
X115935000Y-132228101D01*
X115935000Y-130910175D01*
X116211285Y-131057852D01*
X116519484Y-131151343D01*
X116759678Y-131175000D01*
X116840000Y-131182911D01*
X116920322Y-131175000D01*
X149779681Y-131175000D01*
X149860000Y-131182911D01*
X149940319Y-131175000D01*
X149940322Y-131175000D01*
X150180516Y-131151343D01*
X150488715Y-131057852D01*
X150772752Y-130906031D01*
X151021714Y-130701714D01*
X151072924Y-130639314D01*
X152342915Y-129369324D01*
X152496030Y-129182753D01*
X152647851Y-128898715D01*
X152741342Y-128590517D01*
X152772911Y-128270001D01*
X152741342Y-127949484D01*
X152647851Y-127641286D01*
X152496030Y-127357248D01*
X152291713Y-127108287D01*
X152042752Y-126903970D01*
X151758714Y-126752149D01*
X151450516Y-126658658D01*
X151129999Y-126627089D01*
X150809483Y-126658658D01*
X150501285Y-126752149D01*
X150217247Y-126903970D01*
X150030676Y-127057085D01*
X149182762Y-127905000D01*
X118475000Y-127905000D01*
X118475000Y-127093658D01*
X118545907Y-127145431D01*
X118838071Y-127280957D01*
X119151061Y-127356881D01*
X119472847Y-127370285D01*
X119791068Y-127320654D01*
X120093491Y-127209894D01*
X120368494Y-127042263D01*
X120605510Y-126824203D01*
X120747836Y-126629277D01*
X129048186Y-112543835D01*
X135075122Y-106980511D01*
X135248715Y-106927852D01*
X135532752Y-106776031D01*
X135781714Y-106571714D01*
X135986031Y-106322752D01*
X136137852Y-106038715D01*
X136160001Y-105965700D01*
X136160001Y-106599671D01*
X136152089Y-106680000D01*
X136183658Y-107000516D01*
X136277148Y-107308714D01*
X136428970Y-107592752D01*
X136633287Y-107841714D01*
X136695682Y-107892920D01*
X137965676Y-109162915D01*
X138152247Y-109316030D01*
X138436285Y-109467851D01*
X138744483Y-109561342D01*
X139064999Y-109592911D01*
X139385516Y-109561342D01*
X139693714Y-109467851D01*
X139970001Y-109320173D01*
X139970001Y-109812761D01*
X139657762Y-110125000D01*
X134105322Y-110125000D01*
X134025000Y-110117089D01*
X133704483Y-110148657D01*
X133396285Y-110242148D01*
X133112248Y-110393969D01*
X132863286Y-110598286D01*
X132812079Y-110660682D01*
X131502085Y-111970677D01*
X131348970Y-112157248D01*
X131197148Y-112441286D01*
X131103658Y-112749484D01*
X131072089Y-113070000D01*
X131103658Y-113390516D01*
X131197148Y-113698714D01*
X131348970Y-113982752D01*
X131553287Y-114231713D01*
X131802248Y-114436030D01*
X131817208Y-114444026D01*
X131800241Y-114455363D01*
X131600363Y-114655241D01*
X131443320Y-114890273D01*
X131335147Y-115151426D01*
X131280000Y-115428665D01*
X131280000Y-115711335D01*
X131335147Y-115988574D01*
X131443320Y-116249727D01*
X131600363Y-116484759D01*
X131800241Y-116684637D01*
X132035273Y-116841680D01*
X132296426Y-116949853D01*
X132573665Y-117005000D01*
X132856335Y-117005000D01*
X133133574Y-116949853D01*
X133394727Y-116841680D01*
X133629759Y-116684637D01*
X133829637Y-116484759D01*
X133986680Y-116249727D01*
X134094853Y-115988574D01*
X134150000Y-115711335D01*
X134150000Y-115428665D01*
X134094853Y-115151426D01*
X133986680Y-114890273D01*
X133906317Y-114770000D01*
X137626928Y-114770000D01*
X137626928Y-116370000D01*
X137639188Y-116494482D01*
X137675498Y-116614180D01*
X137734463Y-116724494D01*
X137813815Y-116821185D01*
X137910506Y-116900537D01*
X138020820Y-116959502D01*
X138140518Y-116995812D01*
X138265000Y-117008072D01*
X139865000Y-117008072D01*
X139989482Y-116995812D01*
X140109180Y-116959502D01*
X140219494Y-116900537D01*
X140316185Y-116821185D01*
X140395537Y-116724494D01*
X140454502Y-116614180D01*
X140490812Y-116494482D01*
X140491643Y-116486039D01*
X140690241Y-116684637D01*
X140925273Y-116841680D01*
X141186426Y-116949853D01*
X141463665Y-117005000D01*
X141746335Y-117005000D01*
X142023574Y-116949853D01*
X142284727Y-116841680D01*
X142519759Y-116684637D01*
X142719637Y-116484759D01*
X142875000Y-116252241D01*
X143030363Y-116484759D01*
X143230241Y-116684637D01*
X143465273Y-116841680D01*
X143726426Y-116949853D01*
X144003665Y-117005000D01*
X144286335Y-117005000D01*
X144563574Y-116949853D01*
X144824727Y-116841680D01*
X145059759Y-116684637D01*
X145259637Y-116484759D01*
X145415000Y-116252241D01*
X145570363Y-116484759D01*
X145770241Y-116684637D01*
X146005273Y-116841680D01*
X146266426Y-116949853D01*
X146543665Y-117005000D01*
X146826335Y-117005000D01*
X147103574Y-116949853D01*
X147364727Y-116841680D01*
X147599759Y-116684637D01*
X147799637Y-116484759D01*
X147956680Y-116249727D01*
X148064853Y-115988574D01*
X148120000Y-115711335D01*
X148120000Y-115428665D01*
X148064853Y-115151426D01*
X147956680Y-114890273D01*
X147799637Y-114655241D01*
X147599759Y-114455363D01*
X147364727Y-114298320D01*
X147103574Y-114190147D01*
X146826335Y-114135000D01*
X146543665Y-114135000D01*
X146266426Y-114190147D01*
X146005273Y-114298320D01*
X145770241Y-114455363D01*
X145570363Y-114655241D01*
X145415000Y-114887759D01*
X145259637Y-114655241D01*
X145059759Y-114455363D01*
X144824727Y-114298320D01*
X144563574Y-114190147D01*
X144286335Y-114135000D01*
X144003665Y-114135000D01*
X143726426Y-114190147D01*
X143465273Y-114298320D01*
X143230241Y-114455363D01*
X143030363Y-114655241D01*
X142875000Y-114887759D01*
X142719637Y-114655241D01*
X142519759Y-114455363D01*
X142284727Y-114298320D01*
X142023574Y-114190147D01*
X141746335Y-114135000D01*
X141463665Y-114135000D01*
X141186426Y-114190147D01*
X140925273Y-114298320D01*
X140690241Y-114455363D01*
X140491643Y-114653961D01*
X140490812Y-114645518D01*
X140454502Y-114525820D01*
X140395537Y-114415506D01*
X140316185Y-114318815D01*
X140219494Y-114239463D01*
X140109180Y-114180498D01*
X139989482Y-114144188D01*
X139865000Y-114131928D01*
X138265000Y-114131928D01*
X138140518Y-114144188D01*
X138020820Y-114180498D01*
X137910506Y-114239463D01*
X137813815Y-114318815D01*
X137734463Y-114415506D01*
X137675498Y-114525820D01*
X137639188Y-114645518D01*
X137626928Y-114770000D01*
X133906317Y-114770000D01*
X133829637Y-114655241D01*
X133629759Y-114455363D01*
X133612792Y-114444026D01*
X133627752Y-114436030D01*
X133814323Y-114282915D01*
X134702239Y-113395000D01*
X140254681Y-113395000D01*
X140335000Y-113402911D01*
X140415319Y-113395000D01*
X140415322Y-113395000D01*
X140655516Y-113371343D01*
X140963715Y-113277852D01*
X141247752Y-113126031D01*
X141496714Y-112921714D01*
X141547924Y-112859314D01*
X142704318Y-111702921D01*
X142766714Y-111651714D01*
X142875000Y-111519766D01*
X142983286Y-111651714D01*
X143045686Y-111702924D01*
X144202079Y-112859318D01*
X144253286Y-112921714D01*
X144502248Y-113126031D01*
X144786285Y-113277852D01*
X145094484Y-113371343D01*
X145334678Y-113395000D01*
X145334680Y-113395000D01*
X145414999Y-113402911D01*
X145495319Y-113395000D01*
X151722762Y-113395000D01*
X153305000Y-114977239D01*
X153305000Y-116920321D01*
X153305001Y-116920328D01*
X153305000Y-119934678D01*
X153297089Y-120015000D01*
X153305000Y-120095319D01*
X153305000Y-120095321D01*
X153305001Y-120095330D01*
X153305000Y-122000321D01*
X153328657Y-122240515D01*
X153422148Y-122548714D01*
X153573969Y-122832751D01*
X153778286Y-123081714D01*
X154027248Y-123286031D01*
X154311285Y-123437852D01*
X154619484Y-123531343D01*
X154940000Y-123562911D01*
X155260515Y-123531343D01*
X155568714Y-123437852D01*
X155852751Y-123286031D01*
X156101714Y-123081714D01*
X156306031Y-122832752D01*
X156457852Y-122548715D01*
X156551343Y-122240516D01*
X156575000Y-122000322D01*
X156575000Y-121015000D01*
X161209681Y-121015000D01*
X161290000Y-121022911D01*
X161370319Y-121015000D01*
X161370322Y-121015000D01*
X161610516Y-120991343D01*
X161918715Y-120897852D01*
X162202752Y-120746031D01*
X162451714Y-120541714D01*
X162502924Y-120479314D01*
X163659318Y-119322921D01*
X163721714Y-119271714D01*
X163926031Y-119022752D01*
X164077852Y-118738715D01*
X164171343Y-118430516D01*
X164195000Y-118190322D01*
X164195000Y-118190320D01*
X164202911Y-118110001D01*
X164195000Y-118029681D01*
X164195000Y-117205000D01*
X167559681Y-117205000D01*
X167640000Y-117212911D01*
X167720319Y-117205000D01*
X167720322Y-117205000D01*
X167960516Y-117181343D01*
X168268715Y-117087852D01*
X168552752Y-116936031D01*
X168801714Y-116731714D01*
X168852925Y-116669313D01*
X171392915Y-114129324D01*
X171546030Y-113942753D01*
X171697851Y-113658716D01*
X171791342Y-113350517D01*
X171822911Y-113030001D01*
X171791342Y-112709484D01*
X171697851Y-112401286D01*
X171546030Y-112117248D01*
X171418072Y-111961331D01*
X171418072Y-111160000D01*
X171405812Y-111035518D01*
X171369502Y-110915820D01*
X171310537Y-110805506D01*
X171231185Y-110708815D01*
X171134494Y-110629463D01*
X171084053Y-110602501D01*
X171139287Y-110547267D01*
X171274443Y-110344992D01*
X171367540Y-110120236D01*
X171415000Y-109881637D01*
X171415000Y-109638363D01*
X171367540Y-109399764D01*
X171274443Y-109175008D01*
X171139287Y-108972733D01*
X170967267Y-108800713D01*
X170764992Y-108665557D01*
X170540236Y-108572460D01*
X170301637Y-108525000D01*
X170058363Y-108525000D01*
X169819764Y-108572460D01*
X169595008Y-108665557D01*
X169392733Y-108800713D01*
X169220713Y-108972733D01*
X169085557Y-109175008D01*
X168992460Y-109399764D01*
X168945000Y-109638363D01*
X168945000Y-109881637D01*
X168992460Y-110120236D01*
X169085557Y-110344992D01*
X169220713Y-110547267D01*
X169275947Y-110602501D01*
X169225506Y-110629463D01*
X169128815Y-110708815D01*
X169049463Y-110805506D01*
X168990498Y-110915820D01*
X168954188Y-111035518D01*
X168941928Y-111160000D01*
X168941928Y-111955833D01*
X166962762Y-113935000D01*
X162640322Y-113935000D01*
X162560000Y-113927089D01*
X162479678Y-113935000D01*
X162239484Y-113958657D01*
X161931285Y-114052148D01*
X161647248Y-114203969D01*
X161398286Y-114408286D01*
X161193969Y-114657248D01*
X161168196Y-114705466D01*
X161134637Y-114655241D01*
X160934759Y-114455363D01*
X160699727Y-114298320D01*
X160438574Y-114190147D01*
X160161335Y-114135000D01*
X159878665Y-114135000D01*
X159601426Y-114190147D01*
X159340273Y-114298320D01*
X159105241Y-114455363D01*
X158905363Y-114655241D01*
X158750000Y-114887759D01*
X158594637Y-114655241D01*
X158394759Y-114455363D01*
X158159727Y-114298320D01*
X157898574Y-114190147D01*
X157621335Y-114135000D01*
X157338665Y-114135000D01*
X157061426Y-114190147D01*
X156800273Y-114298320D01*
X156575000Y-114448842D01*
X156575000Y-114380319D01*
X156582911Y-114299999D01*
X156571141Y-114180498D01*
X156551343Y-113979484D01*
X156457852Y-113671285D01*
X156306031Y-113387248D01*
X156101714Y-113138286D01*
X156039319Y-113087080D01*
X153612925Y-110660687D01*
X153561714Y-110598286D01*
X153312752Y-110393969D01*
X153028715Y-110242148D01*
X152720516Y-110148657D01*
X152480322Y-110125000D01*
X152480319Y-110125000D01*
X152400000Y-110117089D01*
X152319681Y-110125000D01*
X146092239Y-110125000D01*
X145780000Y-109812762D01*
X145780000Y-109320175D01*
X146056285Y-109467852D01*
X146364484Y-109561343D01*
X146685000Y-109592911D01*
X147005515Y-109561343D01*
X147313714Y-109467852D01*
X147597751Y-109316031D01*
X147846714Y-109111714D01*
X148051031Y-108862752D01*
X148202852Y-108578715D01*
X148296343Y-108270516D01*
X148320000Y-108030322D01*
X148320000Y-107950000D01*
X149487089Y-107950000D01*
X149518657Y-108270516D01*
X149612148Y-108578715D01*
X149763969Y-108862752D01*
X149968286Y-109111714D01*
X150217248Y-109316031D01*
X150501285Y-109467852D01*
X150809484Y-109561343D01*
X151049678Y-109585000D01*
X154859678Y-109585000D01*
X154940000Y-109592911D01*
X155020322Y-109585000D01*
X155260516Y-109561343D01*
X155568715Y-109467852D01*
X155852752Y-109316031D01*
X156101714Y-109111714D01*
X156306031Y-108862752D01*
X156331804Y-108814534D01*
X156365363Y-108864759D01*
X156565241Y-109064637D01*
X156800273Y-109221680D01*
X157061426Y-109329853D01*
X157338665Y-109385000D01*
X157621335Y-109385000D01*
X157898574Y-109329853D01*
X158159727Y-109221680D01*
X158394759Y-109064637D01*
X158594637Y-108864759D01*
X158750000Y-108632241D01*
X158905363Y-108864759D01*
X159105241Y-109064637D01*
X159340273Y-109221680D01*
X159601426Y-109329853D01*
X159878665Y-109385000D01*
X160161335Y-109385000D01*
X160438574Y-109329853D01*
X160699727Y-109221680D01*
X160934759Y-109064637D01*
X161134637Y-108864759D01*
X161290000Y-108632241D01*
X161445363Y-108864759D01*
X161645241Y-109064637D01*
X161880273Y-109221680D01*
X162141426Y-109329853D01*
X162418665Y-109385000D01*
X162701335Y-109385000D01*
X162978574Y-109329853D01*
X163239727Y-109221680D01*
X163474759Y-109064637D01*
X163674637Y-108864759D01*
X163831680Y-108629727D01*
X163939853Y-108368574D01*
X163995000Y-108091335D01*
X163995000Y-107808665D01*
X163939853Y-107531426D01*
X163831680Y-107270273D01*
X163674637Y-107035241D01*
X163474759Y-106835363D01*
X163239727Y-106678320D01*
X162978574Y-106570147D01*
X162701335Y-106515000D01*
X162418665Y-106515000D01*
X162141426Y-106570147D01*
X161880273Y-106678320D01*
X161645241Y-106835363D01*
X161445363Y-107035241D01*
X161290000Y-107267759D01*
X161134637Y-107035241D01*
X160934759Y-106835363D01*
X160699727Y-106678320D01*
X160438574Y-106570147D01*
X160161335Y-106515000D01*
X159878665Y-106515000D01*
X159601426Y-106570147D01*
X159340273Y-106678320D01*
X159105241Y-106835363D01*
X158905363Y-107035241D01*
X158750000Y-107267759D01*
X158594637Y-107035241D01*
X158394759Y-106835363D01*
X158159727Y-106678320D01*
X157898574Y-106570147D01*
X157621335Y-106515000D01*
X157338665Y-106515000D01*
X157061426Y-106570147D01*
X156800273Y-106678320D01*
X156575000Y-106828842D01*
X156575000Y-103547238D01*
X156887239Y-103235000D01*
X159900314Y-103235000D01*
X160140508Y-103211343D01*
X160448707Y-103117852D01*
X160732744Y-102966031D01*
X160981706Y-102761714D01*
X161186023Y-102512752D01*
X161186084Y-102512638D01*
X161232733Y-102559287D01*
X161435008Y-102694443D01*
X161659764Y-102787540D01*
X161898363Y-102835000D01*
X162141637Y-102835000D01*
X162380236Y-102787540D01*
X162604992Y-102694443D01*
X162807267Y-102559287D01*
X162979287Y-102387267D01*
X163114443Y-102184992D01*
X163207540Y-101960236D01*
X163255000Y-101721637D01*
X163255000Y-101478363D01*
X163207540Y-101239764D01*
X163114443Y-101015008D01*
X162979287Y-100812733D01*
X162807267Y-100640713D01*
X162604992Y-100505557D01*
X162380236Y-100412460D01*
X162141637Y-100365000D01*
X161898363Y-100365000D01*
X161659764Y-100412460D01*
X161435008Y-100505557D01*
X161232733Y-100640713D01*
X161186084Y-100687362D01*
X161186023Y-100687248D01*
X160981706Y-100438286D01*
X160732744Y-100233969D01*
X160448707Y-100082148D01*
X160140508Y-99988657D01*
X159900314Y-99965000D01*
X156290319Y-99965000D01*
X156209999Y-99957089D01*
X156129680Y-99965000D01*
X156129678Y-99965000D01*
X155889484Y-99988657D01*
X155581285Y-100082148D01*
X155297248Y-100233969D01*
X155048286Y-100438286D01*
X154997079Y-100500682D01*
X153840682Y-101657080D01*
X153778287Y-101708286D01*
X153573970Y-101957248D01*
X153422148Y-102241286D01*
X153328658Y-102549484D01*
X153297089Y-102870000D01*
X153305001Y-102950329D01*
X153305000Y-106315000D01*
X151049678Y-106315000D01*
X150809484Y-106338657D01*
X150501285Y-106432148D01*
X150217248Y-106583969D01*
X149968286Y-106788286D01*
X149763969Y-107037248D01*
X149612148Y-107321285D01*
X149518657Y-107629484D01*
X149487089Y-107950000D01*
X148320000Y-107950000D01*
X148320000Y-90250319D01*
X148327911Y-90169999D01*
X148318453Y-90073969D01*
X148296343Y-89849484D01*
X148202852Y-89541285D01*
X148051031Y-89257248D01*
X147846714Y-89008286D01*
X147784318Y-88957079D01*
X147170639Y-88343400D01*
X147050000Y-88052152D01*
X147050000Y-83585958D01*
X147129775Y-83466566D01*
X147275639Y-83114419D01*
X147350000Y-82740581D01*
X147350000Y-82359419D01*
X147275639Y-81985581D01*
X147129775Y-81633434D01*
X146918013Y-81316509D01*
X146648491Y-81046987D01*
X146331566Y-80835225D01*
X145979419Y-80689361D01*
X145605581Y-80615000D01*
X145224419Y-80615000D01*
X144850581Y-80689361D01*
X144498434Y-80835225D01*
X144181509Y-81046987D01*
X143911987Y-81316509D01*
X143700225Y-81633434D01*
X143554361Y-81985581D01*
X143480000Y-82359419D01*
X143480000Y-82740581D01*
X143554361Y-83114419D01*
X143700225Y-83466566D01*
X143780001Y-83585959D01*
X143780000Y-88052152D01*
X143650518Y-88364750D01*
X143580000Y-88719268D01*
X143580000Y-89080732D01*
X143650518Y-89435250D01*
X143788844Y-89769199D01*
X143989662Y-90069744D01*
X144245256Y-90325338D01*
X144545801Y-90526156D01*
X144858400Y-90655639D01*
X145050001Y-90847240D01*
X145050000Y-106579826D01*
X144773715Y-106432148D01*
X144465516Y-106338657D01*
X144145000Y-106307089D01*
X143824485Y-106338657D01*
X143516286Y-106432148D01*
X143240000Y-106579826D01*
X143240000Y-104059678D01*
X143216343Y-103819484D01*
X143122852Y-103511285D01*
X142971031Y-103227248D01*
X142766714Y-102978286D01*
X142517752Y-102773969D01*
X142233715Y-102622148D01*
X141925516Y-102528657D01*
X141605000Y-102497089D01*
X141284485Y-102528657D01*
X140976286Y-102622148D01*
X140692249Y-102773969D01*
X140443287Y-102978286D01*
X140238970Y-103227248D01*
X140087149Y-103511285D01*
X139993658Y-103819484D01*
X139970001Y-104059678D01*
X139970000Y-106542762D01*
X139430000Y-106002762D01*
X139430000Y-102277238D01*
X142704324Y-99002916D01*
X142766714Y-98951714D01*
X142971031Y-98702752D01*
X143122852Y-98418715D01*
X143205200Y-98147249D01*
X143216343Y-98110517D01*
X143247911Y-97790000D01*
X143240000Y-97709678D01*
X143240000Y-93899678D01*
X143216343Y-93659484D01*
X143122852Y-93351285D01*
X142971031Y-93067248D01*
X142766714Y-92818286D01*
X142517751Y-92613969D01*
X142233714Y-92462148D01*
X141925515Y-92368657D01*
X141605000Y-92337089D01*
X141284484Y-92368657D01*
X140976285Y-92462148D01*
X140692248Y-92613969D01*
X140443286Y-92818286D01*
X140238969Y-93067249D01*
X140087148Y-93351286D01*
X139993657Y-93659485D01*
X139970000Y-93899679D01*
X139970001Y-97112759D01*
X136695687Y-100387075D01*
X136633286Y-100438286D01*
X136428969Y-100687249D01*
X136277148Y-100971286D01*
X136255000Y-101044298D01*
X136255000Y-99737238D01*
X138894319Y-97097920D01*
X138956714Y-97046714D01*
X139161031Y-96797752D01*
X139312852Y-96513715D01*
X139406343Y-96205516D01*
X139430000Y-95965322D01*
X139430000Y-95965320D01*
X139437911Y-95885001D01*
X139430000Y-95804681D01*
X139430000Y-91520319D01*
X139437911Y-91439999D01*
X139427246Y-91331714D01*
X139406343Y-91119484D01*
X139312852Y-90811285D01*
X139161031Y-90527248D01*
X138956714Y-90278286D01*
X138894320Y-90227081D01*
X136467925Y-87800687D01*
X136416714Y-87738286D01*
X136167752Y-87533969D01*
X135883715Y-87382148D01*
X135575516Y-87288657D01*
X135335322Y-87265000D01*
X135335319Y-87265000D01*
X135255000Y-87257089D01*
X135174681Y-87265000D01*
X134379468Y-87265000D01*
X134366185Y-87248815D01*
X134350000Y-87235532D01*
X134350000Y-86045685D01*
X136638215Y-82180553D01*
X136661031Y-82152752D01*
X136720122Y-82042201D01*
X136742851Y-82003808D01*
X136757952Y-81971426D01*
X136812852Y-81868715D01*
X136825885Y-81825750D01*
X136844857Y-81785067D01*
X136872537Y-81671961D01*
X136906343Y-81560516D01*
X136910743Y-81515838D01*
X136921415Y-81472231D01*
X136926496Y-81355894D01*
X136930000Y-81320322D01*
X136930000Y-81275682D01*
X136935469Y-81150472D01*
X136930000Y-81114934D01*
X136930000Y-78901670D01*
X136995000Y-78908072D01*
X138595000Y-78908072D01*
X138719482Y-78895812D01*
X138839180Y-78859502D01*
X138949494Y-78800537D01*
X139046185Y-78721185D01*
X139125537Y-78624494D01*
X139184502Y-78514180D01*
X139220812Y-78394482D01*
X139233072Y-78270000D01*
X139233072Y-77359419D01*
X143480000Y-77359419D01*
X143480000Y-77740581D01*
X143554361Y-78114419D01*
X143700225Y-78466566D01*
X143911987Y-78783491D01*
X144181509Y-79053013D01*
X144498434Y-79264775D01*
X144850581Y-79410639D01*
X145224419Y-79485000D01*
X145605581Y-79485000D01*
X145979419Y-79410639D01*
X146331566Y-79264775D01*
X146648491Y-79053013D01*
X146918013Y-78783491D01*
X147129775Y-78466566D01*
X147275639Y-78114419D01*
X147350000Y-77740581D01*
X147350000Y-77359419D01*
X147275639Y-76985581D01*
X147129775Y-76633434D01*
X146918013Y-76316509D01*
X146648491Y-76046987D01*
X146331566Y-75835225D01*
X145979419Y-75689361D01*
X145605581Y-75615000D01*
X145224419Y-75615000D01*
X144850581Y-75689361D01*
X144498434Y-75835225D01*
X144181509Y-76046987D01*
X143911987Y-76316509D01*
X143700225Y-76633434D01*
X143554361Y-76985581D01*
X143480000Y-77359419D01*
X139233072Y-77359419D01*
X139233072Y-76670000D01*
X139220812Y-76545518D01*
X139184502Y-76425820D01*
X139125537Y-76315506D01*
X139046185Y-76218815D01*
X138949494Y-76139463D01*
X138839180Y-76080498D01*
X138719482Y-76044188D01*
X138595000Y-76031928D01*
X136995000Y-76031928D01*
X136870518Y-76044188D01*
X136750820Y-76080498D01*
X136640506Y-76139463D01*
X136543815Y-76218815D01*
X136464463Y-76315506D01*
X136463744Y-76316852D01*
X136456714Y-76308286D01*
X136207751Y-76103969D01*
X135923714Y-75952148D01*
X135615515Y-75858657D01*
X135295000Y-75827089D01*
X134974484Y-75858657D01*
X134666285Y-75952148D01*
X134382248Y-76103969D01*
X134133286Y-76308286D01*
X133928969Y-76557249D01*
X133777148Y-76841286D01*
X133683657Y-77149485D01*
X133660000Y-77389679D01*
X133660001Y-80792312D01*
X131371785Y-84657448D01*
X131348969Y-84685249D01*
X131289878Y-84795800D01*
X131267149Y-84834193D01*
X131252048Y-84866575D01*
X131197148Y-84969286D01*
X131184115Y-85012251D01*
X131165143Y-85052934D01*
X131137463Y-85166040D01*
X131103657Y-85277485D01*
X131099257Y-85322163D01*
X131088585Y-85365770D01*
X131083504Y-85482107D01*
X131080000Y-85517679D01*
X131080000Y-85562318D01*
X131074531Y-85687528D01*
X131080000Y-85723066D01*
X131080000Y-86370057D01*
X127958490Y-84185000D01*
X129459678Y-84185000D01*
X129540000Y-84192911D01*
X129699030Y-84177248D01*
X129860516Y-84161343D01*
X130168715Y-84067852D01*
X130452752Y-83916031D01*
X130701714Y-83711714D01*
X130906031Y-83462752D01*
X131057852Y-83178715D01*
X131151343Y-82870516D01*
X131182911Y-82550000D01*
X131175000Y-82469678D01*
X131175000Y-72470322D01*
X131182911Y-72390000D01*
X131151343Y-72069484D01*
X131057852Y-71761285D01*
X130906031Y-71477248D01*
X130701714Y-71228286D01*
X130452752Y-71023969D01*
X130168715Y-70872148D01*
X129860516Y-70778657D01*
X129620322Y-70755000D01*
X129540000Y-70747089D01*
X129459678Y-70755000D01*
X109897240Y-70755000D01*
X108772112Y-69629872D01*
X175565000Y-69629872D01*
X175565000Y-70070128D01*
X175650890Y-70501925D01*
X175819369Y-70908669D01*
X176063962Y-71274729D01*
X176375271Y-71586038D01*
X176741331Y-71830631D01*
X177148075Y-71999110D01*
X177579872Y-72085000D01*
X178020128Y-72085000D01*
X178451925Y-71999110D01*
X178858669Y-71830631D01*
X179224729Y-71586038D01*
X179536038Y-71274729D01*
X179780631Y-70908669D01*
X179949110Y-70501925D01*
X180035000Y-70070128D01*
X180035000Y-69629872D01*
X179949110Y-69198075D01*
X179780631Y-68791331D01*
X179536038Y-68425271D01*
X179224729Y-68113962D01*
X178858669Y-67869369D01*
X178451925Y-67700890D01*
X178020128Y-67615000D01*
X177579872Y-67615000D01*
X177148075Y-67700890D01*
X176741331Y-67869369D01*
X176375271Y-68113962D01*
X176063962Y-68425271D01*
X175819369Y-68791331D01*
X175650890Y-69198075D01*
X175565000Y-69629872D01*
X108772112Y-69629872D01*
X106622925Y-67480687D01*
X106571714Y-67418286D01*
X106322752Y-67213969D01*
X106038715Y-67062148D01*
X105730516Y-66968657D01*
X105490322Y-66945000D01*
X105490319Y-66945000D01*
X105410000Y-66937089D01*
X105329681Y-66945000D01*
X77550322Y-66945000D01*
X77470000Y-66937089D01*
X77149483Y-66968657D01*
X76841285Y-67062148D01*
X76557248Y-67213969D01*
X76308286Y-67418286D01*
X76257079Y-67480682D01*
X74465682Y-69272080D01*
X74403287Y-69323286D01*
X74264210Y-69492753D01*
X74198970Y-69572248D01*
X74047148Y-69856286D01*
X73953658Y-70164484D01*
X73922089Y-70485000D01*
X73930001Y-70565329D01*
X73930001Y-72025000D01*
X67229678Y-72025000D01*
X66989484Y-72048657D01*
X66681285Y-72142148D01*
X66397248Y-72293969D01*
X66148286Y-72498286D01*
X65943969Y-72747248D01*
X65792148Y-73031285D01*
X65698657Y-73339484D01*
X65667089Y-73660000D01*
X56540000Y-73660000D01*
X56540000Y-68359872D01*
X59995000Y-68359872D01*
X59995000Y-68800128D01*
X60080890Y-69231925D01*
X60249369Y-69638669D01*
X60493962Y-70004729D01*
X60805271Y-70316038D01*
X61171331Y-70560631D01*
X61578075Y-70729110D01*
X62009872Y-70815000D01*
X62450128Y-70815000D01*
X62881925Y-70729110D01*
X63288669Y-70560631D01*
X63654729Y-70316038D01*
X63966038Y-70004729D01*
X64210631Y-69638669D01*
X64379110Y-69231925D01*
X64465000Y-68800128D01*
X64465000Y-68359872D01*
X64379110Y-67928075D01*
X64210631Y-67521331D01*
X63966038Y-67155271D01*
X63654729Y-66843962D01*
X63288669Y-66599369D01*
X62881925Y-66430890D01*
X62450128Y-66345000D01*
X62009872Y-66345000D01*
X61578075Y-66430890D01*
X61171331Y-66599369D01*
X60805271Y-66843962D01*
X60493962Y-67155271D01*
X60249369Y-67521331D01*
X60080890Y-67928075D01*
X59995000Y-68359872D01*
X56540000Y-68359872D01*
X56540000Y-64160000D01*
X189840001Y-64160000D01*
X189840000Y-151740000D01*
G37*
%TD.AperFunction*%
D24*
X130876928Y-88998794D02*
X130876928Y-90100000D01*
X130889188Y-90224482D01*
X130925498Y-90344180D01*
X130984463Y-90454494D01*
X131063815Y-90551185D01*
X131160506Y-90630537D01*
X131270820Y-90689502D01*
X131390518Y-90725812D01*
X131515000Y-90738072D01*
X133915000Y-90738072D01*
X134039482Y-90725812D01*
X134159180Y-90689502D01*
X134269494Y-90630537D01*
X134366185Y-90551185D01*
X134379468Y-90535000D01*
X134577762Y-90535000D01*
X136160000Y-92117239D01*
X136160001Y-93899669D01*
X136160000Y-93899679D01*
X136160001Y-95207761D01*
X133520687Y-97847075D01*
X133458286Y-97898286D01*
X133253969Y-98147249D01*
X133102148Y-98431286D01*
X133008657Y-98739485D01*
X132985692Y-98972657D01*
X132977089Y-99060000D01*
X132985000Y-99140320D01*
X132985001Y-104459683D01*
X126654563Y-110303166D01*
X126536489Y-110411797D01*
X126488090Y-110478083D01*
X126433542Y-110539380D01*
X126352921Y-110676710D01*
X118337943Y-124277885D01*
X117823893Y-119137389D01*
X117776453Y-118900741D01*
X117652759Y-118603374D01*
X117473429Y-118335853D01*
X117245353Y-118108457D01*
X116977297Y-117929927D01*
X116679562Y-117807122D01*
X116363590Y-117744762D01*
X116041525Y-117745243D01*
X115725741Y-117808547D01*
X115428374Y-117932241D01*
X115160853Y-118111571D01*
X114933457Y-118339647D01*
X114754927Y-118607703D01*
X114632122Y-118905438D01*
X114569762Y-119221410D01*
X114570122Y-119462765D01*
X115051631Y-124277848D01*
X114928715Y-124212148D01*
X114620516Y-124118657D01*
X114300000Y-124087089D01*
X113979485Y-124118657D01*
X113671286Y-124212148D01*
X113387249Y-124363969D01*
X113138287Y-124568286D01*
X112935151Y-124815809D01*
X112913475Y-124783368D01*
X112706632Y-124576525D01*
X112463411Y-124414010D01*
X112193158Y-124302068D01*
X111906260Y-124245000D01*
X111613740Y-124245000D01*
X111326842Y-124302068D01*
X111056589Y-124414010D01*
X110813368Y-124576525D01*
X110606525Y-124783368D01*
X110490000Y-124957760D01*
X110373475Y-124783368D01*
X110166632Y-124576525D01*
X109923411Y-124414010D01*
X109653158Y-124302068D01*
X109366260Y-124245000D01*
X109073740Y-124245000D01*
X108786842Y-124302068D01*
X108516589Y-124414010D01*
X108273368Y-124576525D01*
X108066525Y-124783368D01*
X107950000Y-124957760D01*
X107833475Y-124783368D01*
X107626632Y-124576525D01*
X107383411Y-124414010D01*
X107113158Y-124302068D01*
X106826260Y-124245000D01*
X106533740Y-124245000D01*
X106246842Y-124302068D01*
X105976589Y-124414010D01*
X105775000Y-124548707D01*
X105775000Y-122597238D01*
X117304325Y-111067915D01*
X117366714Y-111016714D01*
X117571031Y-110767752D01*
X117722852Y-110483715D01*
X117784500Y-110280490D01*
X117816343Y-110175517D01*
X117847911Y-109855000D01*
X117840000Y-109774678D01*
X117840000Y-105775000D01*
X121405322Y-105775000D01*
X121645516Y-105751343D01*
X121953715Y-105657852D01*
X122237752Y-105506031D01*
X122486714Y-105301714D01*
X122691031Y-105052752D01*
X122699027Y-105037793D01*
X122710363Y-105054759D01*
X122910241Y-105254637D01*
X123145273Y-105411680D01*
X123406426Y-105519853D01*
X123683665Y-105575000D01*
X123966335Y-105575000D01*
X124243574Y-105519853D01*
X124504727Y-105411680D01*
X124709284Y-105275000D01*
X129484249Y-105275000D01*
X129540000Y-105280491D01*
X129762499Y-105258577D01*
X129976447Y-105193676D01*
X130173623Y-105088284D01*
X130346449Y-104946449D01*
X130488284Y-104773623D01*
X130593676Y-104576447D01*
X130658577Y-104362499D01*
X130675000Y-104195752D01*
X130675000Y-104195751D01*
X130680491Y-104140000D01*
X130675000Y-104084248D01*
X130675000Y-90225752D01*
X130680491Y-90170000D01*
X130658577Y-89947501D01*
X130593676Y-89733553D01*
X130488284Y-89536377D01*
X130346449Y-89363551D01*
X130173623Y-89221716D01*
X129976447Y-89116324D01*
X129762499Y-89051423D01*
X129595752Y-89035000D01*
X129595751Y-89035000D01*
X129540000Y-89029509D01*
X129484248Y-89035000D01*
X122755132Y-89035000D01*
X124002283Y-87787849D01*
X124243574Y-87739853D01*
X124504727Y-87631680D01*
X124739759Y-87474637D01*
X124939637Y-87274759D01*
X125096680Y-87039727D01*
X125204853Y-86778574D01*
X125260000Y-86501335D01*
X125260000Y-86218665D01*
X125204853Y-85941426D01*
X125096680Y-85680273D01*
X125036362Y-85590000D01*
X126007224Y-85590000D01*
X130876928Y-88998794D01*
%TA.AperFunction,Conductor*%
D25*
G36*
X130876928Y-88998794D02*
G01*
X130876928Y-90100000D01*
X130889188Y-90224482D01*
X130925498Y-90344180D01*
X130984463Y-90454494D01*
X131063815Y-90551185D01*
X131160506Y-90630537D01*
X131270820Y-90689502D01*
X131390518Y-90725812D01*
X131515000Y-90738072D01*
X133915000Y-90738072D01*
X134039482Y-90725812D01*
X134159180Y-90689502D01*
X134269494Y-90630537D01*
X134366185Y-90551185D01*
X134379468Y-90535000D01*
X134577762Y-90535000D01*
X136160000Y-92117239D01*
X136160001Y-93899669D01*
X136160000Y-93899679D01*
X136160001Y-95207761D01*
X133520687Y-97847075D01*
X133458286Y-97898286D01*
X133253969Y-98147249D01*
X133102148Y-98431286D01*
X133008657Y-98739485D01*
X132985692Y-98972657D01*
X132977089Y-99060000D01*
X132985000Y-99140320D01*
X132985001Y-104459683D01*
X126654563Y-110303166D01*
X126536489Y-110411797D01*
X126488090Y-110478083D01*
X126433542Y-110539380D01*
X126352921Y-110676710D01*
X118337943Y-124277885D01*
X117823893Y-119137389D01*
X117776453Y-118900741D01*
X117652759Y-118603374D01*
X117473429Y-118335853D01*
X117245353Y-118108457D01*
X116977297Y-117929927D01*
X116679562Y-117807122D01*
X116363590Y-117744762D01*
X116041525Y-117745243D01*
X115725741Y-117808547D01*
X115428374Y-117932241D01*
X115160853Y-118111571D01*
X114933457Y-118339647D01*
X114754927Y-118607703D01*
X114632122Y-118905438D01*
X114569762Y-119221410D01*
X114570122Y-119462765D01*
X115051631Y-124277848D01*
X114928715Y-124212148D01*
X114620516Y-124118657D01*
X114300000Y-124087089D01*
X113979485Y-124118657D01*
X113671286Y-124212148D01*
X113387249Y-124363969D01*
X113138287Y-124568286D01*
X112935151Y-124815809D01*
X112913475Y-124783368D01*
X112706632Y-124576525D01*
X112463411Y-124414010D01*
X112193158Y-124302068D01*
X111906260Y-124245000D01*
X111613740Y-124245000D01*
X111326842Y-124302068D01*
X111056589Y-124414010D01*
X110813368Y-124576525D01*
X110606525Y-124783368D01*
X110490000Y-124957760D01*
X110373475Y-124783368D01*
X110166632Y-124576525D01*
X109923411Y-124414010D01*
X109653158Y-124302068D01*
X109366260Y-124245000D01*
X109073740Y-124245000D01*
X108786842Y-124302068D01*
X108516589Y-124414010D01*
X108273368Y-124576525D01*
X108066525Y-124783368D01*
X107950000Y-124957760D01*
X107833475Y-124783368D01*
X107626632Y-124576525D01*
X107383411Y-124414010D01*
X107113158Y-124302068D01*
X106826260Y-124245000D01*
X106533740Y-124245000D01*
X106246842Y-124302068D01*
X105976589Y-124414010D01*
X105775000Y-124548707D01*
X105775000Y-122597238D01*
X117304325Y-111067915D01*
X117366714Y-111016714D01*
X117571031Y-110767752D01*
X117722852Y-110483715D01*
X117784500Y-110280490D01*
X117816343Y-110175517D01*
X117847911Y-109855000D01*
X117840000Y-109774678D01*
X117840000Y-105775000D01*
X121405322Y-105775000D01*
X121645516Y-105751343D01*
X121953715Y-105657852D01*
X122237752Y-105506031D01*
X122486714Y-105301714D01*
X122691031Y-105052752D01*
X122699027Y-105037793D01*
X122710363Y-105054759D01*
X122910241Y-105254637D01*
X123145273Y-105411680D01*
X123406426Y-105519853D01*
X123683665Y-105575000D01*
X123966335Y-105575000D01*
X124243574Y-105519853D01*
X124504727Y-105411680D01*
X124709284Y-105275000D01*
X129484249Y-105275000D01*
X129540000Y-105280491D01*
X129762499Y-105258577D01*
X129976447Y-105193676D01*
X130173623Y-105088284D01*
X130346449Y-104946449D01*
X130488284Y-104773623D01*
X130593676Y-104576447D01*
X130658577Y-104362499D01*
X130675000Y-104195752D01*
X130675000Y-104195751D01*
X130680491Y-104140000D01*
X130675000Y-104084248D01*
X130675000Y-90225752D01*
X130680491Y-90170000D01*
X130658577Y-89947501D01*
X130593676Y-89733553D01*
X130488284Y-89536377D01*
X130346449Y-89363551D01*
X130173623Y-89221716D01*
X129976447Y-89116324D01*
X129762499Y-89051423D01*
X129595752Y-89035000D01*
X129595751Y-89035000D01*
X129540000Y-89029509D01*
X129484248Y-89035000D01*
X122755132Y-89035000D01*
X124002283Y-87787849D01*
X124243574Y-87739853D01*
X124504727Y-87631680D01*
X124739759Y-87474637D01*
X124939637Y-87274759D01*
X125096680Y-87039727D01*
X125204853Y-86778574D01*
X125260000Y-86501335D01*
X125260000Y-86218665D01*
X125204853Y-85941426D01*
X125096680Y-85680273D01*
X125036362Y-85590000D01*
X126007224Y-85590000D01*
X130876928Y-88998794D01*
G37*
%TD.AperFunction*%
%TD*%
M02*
